<svg xmlns="http://www.w3.org/2000/svg" width="785" height="936" fill="none" viewBox="0 0 785 936"><g clip-path="url(#a)"><path fill="#10cbff" d="M439.465.098a311.14 311.14 0 0 1 148.041 36.924l9.02 5.037 83.642 48.48a25.2 25.2 0 0 1 5.795 4.626c.295.166.595.325.889.493a193.4 193.4 0 0 1 71.278 70.785 193.46 193.46 0 0 1 26.142 97.009v151.463c0 .649-.051 1.29-.098 1.927v10.963c0 .321-.039.638-.051.954v22.653a365.5 365.5 0 0 1-48.281 181.307 365.5 365.5 0 0 1-131.858 133.472l-.032.017-282.187 165.57a25.28 25.28 0 0 1-25.417.116L12.665 768.413a25.29 25.29 0 0 1-12.66-21.911V223.911a25.3 25.3 0 0 1 12.462-21.795L282.67 43.096l8.988-5.103A311.17 311.17 0 0 1 439.465.098m.166 50.57a260.6 260.6 0 0 0-123.776 31.739l-7.523 4.263L50.575 238.364v493.52L308.86 880.731l269.494-158.147a314.928 314.928 0 0 0 155.2-271.189V341.447c-.266-13.398-3.875-26.523-10.584-38.142a79.44 79.44 0 0 0-29.088-29.071 79.43 79.43 0 0 0-50.29-9.925l-1.137 193.127a226.2 226.2 0 0 1-29.927 112.136 226.3 226.3 0 0 1-75.427 78.77l-6.288 3.835c-.074.044-.157.089-.231.131L357.8 751.475c-.336.192-.697.334-1.037.509q-.409.215-.823.411a25 25 0 0 1-2.255.939q-.795.283-1.598.511c-.229.066-.459.138-.691.197-.541.137-1.084.246-1.629.346-.313.057-.625.118-.938.165q-.635.09-1.268.148c-.405.039-.811.063-1.219.081-.372.017-.745.034-1.119.034a25 25 0 0 1-2.074-.083 25 25 0 0 1-2.09-.263c-.084-.013-.165-.035-.248-.049a25 25 0 0 1-1.909-.413c-.253-.064-.506-.123-.757-.197a24.3 24.3 0 0 1-3.968-1.513c-.15-.073-.295-.156-.444-.231-.416-.211-.843-.405-1.25-.643l-160.47-93.172-.197-.131a26 26 0 0 1-1.285-.825l-.691-.443a25 25 0 0 1-2.09-1.713c-.17-.153-.329-.318-.494-.477-.369-.352-.742-.699-1.085-1.07-.23-.244-.442-.502-.66-.757a25.2 25.2 0 0 1-3.243-4.807 25 25 0 0 1-1.382-3.21c-.13-.368-.266-.73-.379-1.102-.086-.289-.154-.582-.231-.874-.113-.431-.238-.861-.329-1.299-.076-.37-.121-.745-.18-1.12-.068-.416-.152-.831-.199-1.252-.007-.064-.009-.132-.015-.197l-.051-.691a26 26 0 0 1-.066-1.482l-.015-.411V307.635c0-.204.012-.408.015-.61a27 27 0 0 1 .231-2.764c.046-.336.09-.671.149-1.005.092-.533.204-1.059.328-1.58.059-.242.117-.485.182-.724.152-.558.337-1.104.526-1.647.079-.224.147-.452.231-.675.204-.537.435-1.061.674-1.581.098-.209.194-.418.297-.625.255-.513.519-1.02.808-1.514.131-.227.271-.452.411-.674q.415-.665.871-1.301c.218-.302.445-.595.676-.889.226-.29.452-.578.691-.856q.452-.53.939-1.037c.282-.295.577-.576.872-.856.265-.251.529-.501.807-.742.388-.337.793-.655 1.201-.971.209-.158.413-.323.627-.477.568-.409 1.158-.79 1.761-1.153q.08-.049.164-.098l.462-.279c.118-.066.225-.15.345-.214l320.13-188.536.017-.016 5.562-3.145a193.5 193.5 0 0 1 51.13-19.062 260.5 260.5 0 0 0-109.897-23.935m-68.678 362.14-1.022 273.379 135.267-77.617 4.889-2.978a175.7 175.7 0 0 0 58.553-61.157 175.7 175.7 0 0 0 23.244-87.179v-.117l1.005-170.657zm219.038-292.095a142.8 142.8 0 0 0-71.525 19.705l-.017-.017-308.458 181.687v299.75l109.37 63.493 1.087-287.354.032-.708c.017-.483.024-.967.068-1.449l.032-.428a25.2 25.2 0 0 1 8.083-15.967c.066-.061.114-.138.18-.199.297-.263.614-.504.922-.757q.524-.423 1.071-.823.3-.218.608-.428c.494-.339.996-.667 1.516-.971q.13-.073.263-.148l256.06-145.703a130 130 0 0 1 64.86-17.366 130 130 0 0 1 65.006 17.4 130 130 0 0 1 12.314 8.083 142.8 142.8 0 0 0-17.071-46.67 142.9 142.9 0 0 0-52.644-52.298 142.86 142.86 0 0 0-71.757-18.832"/></g><defs><clipPath id="a"><path fill="#fff" d="M0 0h785v936H0z"/></clipPath></defs></svg>