<svg width="175" height="175" viewBox="0 0 175 175" fill="none" xmlns="http://www.w3.org/2000/svg">
<path d="M116.75 60.8025C116.627 60.8729 116.503 60.9431 116.38 61.0144L114.916 61.8699C110.102 64.6921 93.5989 74.105 84.6484 79.1999V119.162C90.1554 116.001 97.8014 111.505 102.772 108.234L103.505 107.742C111.012 102.576 116.75 95.0308 116.75 85.7781V60.8025ZM120.896 37.697C112.872 35.6414 109.495 38.7648 103.082 41.9617L102.441 42.2761C97.7235 44.5537 74.0989 58.888 61.4375 66.655V109.019L78.6484 119.086V77.4568C78.6485 76.3782 79.2276 75.3827 80.165 74.8494C88.6417 70.0264 106.823 59.6598 111.882 56.6941L113.349 55.8347C114.905 54.9328 116.721 53.9393 118.676 53.1902L119.271 52.9714C122.273 51.9141 125.78 51.3962 129.597 52.5378C131.762 53.1854 133.903 54.3301 136.025 56.0476L136.02 55.6101C135.943 51.0378 134.531 48.1267 132.106 45.6062C129.553 42.9525 125.883 40.7136 120.896 37.697ZM142.02 87.0915C142.02 96.5968 140.201 109.905 126.634 120.901L125.979 121.424C115.289 129.797 89.7141 145.53 78.3672 152.295C77.441 152.847 76.2896 152.86 75.3516 152.328L34.4033 129.117C33.4635 128.584 32.8828 127.587 32.8828 126.507V53.5886C32.8829 52.5543 33.4159 51.5928 34.293 51.0447C42.4527 45.9449 60.8776 34.5495 69.0049 29.9558L70.0293 29.3923C75.2968 26.5723 82.6514 23.7791 90.5283 22.7234C98.9272 21.5978 108.224 22.4143 116.149 27.657L117.13 28.2996C119.401 29.7749 121.566 31.0907 123.623 32.3347L125.454 33.4421C129.68 36.0055 133.556 38.4587 136.431 41.447C139.909 45.0622 141.917 49.4235 142.019 55.5095L142.076 59.7048C142.091 61.0591 142.1 62.3713 142.106 63.6462L142.116 66.9558C142.121 74.5078 142.02 80.9011 142.02 87.0915ZM122.75 85.7781C122.75 97.7379 115.335 106.884 106.891 112.695L106.07 113.247C99.3166 117.69 87.9358 124.232 83.1152 126.934C82.187 127.455 81.0523 127.444 80.1338 126.907L56.9229 113.33C56.003 112.792 55.4376 111.807 55.4375 110.741V64.9753C55.4375 63.933 55.9783 62.9655 56.8662 62.4197C68.8795 55.038 94.5745 39.4114 99.833 36.8728L100.373 36.6062C103.578 34.9869 106.894 32.738 111.202 31.6706C105.228 28.3622 98.2178 27.7471 91.3262 28.6706C84.2685 29.6165 77.6023 32.1451 72.876 34.6736L71.957 35.1794C64.3987 39.4515 47.6073 49.8139 38.8828 55.2537V124.759L76.7891 146.246C88.7925 139.049 112.377 124.457 122.279 116.7L122.839 116.254C134.442 106.856 136.02 95.6925 136.02 87.0915C136.02 80.0722 136.141 73.2982 136.109 64.6921C132.952 60.7323 130.175 58.9731 127.878 58.2859C126.13 57.7631 124.438 57.7959 122.75 58.1931V85.7781Z" fill="#19C4FB"/>
</svg>
