<svg xmlns="http://www.w3.org/2000/svg" width="785" height="936" fill="none" viewBox="0 0 785 936"><g clip-path="url(#a)"><path fill="#000" d="M439.476.098a311.14 311.14 0 0 1 148.041 36.924l9.02 5.037 83.642 48.48a25.2 25.2 0 0 1 5.795 4.626c.295.166.595.325.888.493a193.4 193.4 0 0 1 71.279 70.785 193.46 193.46 0 0 1 26.141 97.009v151.463c0 .649-.05 1.29-.097 1.927v10.963c0 .321-.039.638-.051.954v22.653a365.5 365.5 0 0 1-48.281 181.307 365.5 365.5 0 0 1-131.858 133.472l-.033.017-282.186 165.57a25.28 25.28 0 0 1-25.417.116L12.675 768.413A25.29 25.29 0 0 1 .016 746.502V223.911a25.3 25.3 0 0 1 12.462-21.795L282.68 43.096l8.988-5.103A311.17 311.17 0 0 1 439.476.098m.165 50.57a260.6 260.6 0 0 0-123.775 31.739l-7.524 4.263L50.586 238.364v493.52L308.87 880.731l269.494-158.147a314.92 314.92 0 0 0 155.2-271.189V341.447c-.267-13.398-3.876-26.523-10.585-38.142a79.43 79.43 0 0 0-29.088-29.071 79.43 79.43 0 0 0-50.29-9.925l-1.136 193.127a226.2 226.2 0 0 1-29.928 112.136 226.26 226.26 0 0 1-75.427 78.77l-6.287 3.835c-.074.044-.157.089-.231.131L357.81 751.475c-.335.192-.696.334-1.036.509q-.41.215-.823.411a25 25 0 0 1-2.255.939q-.795.283-1.598.511c-.23.066-.459.138-.692.197-.541.137-1.083.246-1.628.346-.314.057-.625.118-.939.165a26 26 0 0 1-2.486.229c-.373.017-.745.034-1.12.034a25 25 0 0 1-2.073-.083 25 25 0 0 1-2.09-.263c-.084-.013-.165-.035-.248-.049a25 25 0 0 1-1.91-.413c-.253-.064-.506-.123-.757-.197a24.5 24.5 0 0 1-3.968-1.513c-.15-.073-.295-.156-.443-.231-.416-.211-.843-.405-1.251-.643l-160.469-93.172-.197-.131a25 25 0 0 1-1.285-.825l-.691-.443a25 25 0 0 1-2.09-1.713c-.171-.153-.329-.318-.494-.477-.369-.352-.742-.699-1.086-1.07-.229-.244-.441-.502-.659-.757a25 25 0 0 1-3.243-4.807 25 25 0 0 1-1.382-3.21c-.13-.368-.267-.73-.38-1.102-.086-.289-.153-.582-.231-.874-.113-.431-.237-.861-.328-1.299-.076-.37-.122-.745-.181-1.12-.067-.416-.151-.831-.199-1.252-.006-.064-.008-.132-.015-.197l-.05-.691a25 25 0 0 1-.066-1.482l-.015-.411V307.635c0-.204.012-.408.015-.61a26 26 0 0 1 .231-2.764c.045-.336.089-.671.148-1.005q.14-.799.329-1.58c.059-.242.116-.485.182-.724.152-.558.337-1.104.526-1.647.079-.224.147-.452.231-.675.204-.537.435-1.061.674-1.581.098-.209.194-.418.297-.625.254-.513.519-1.02.807-1.514q.2-.34.412-.674.415-.665.871-1.301c.217-.302.445-.595.676-.889.226-.29.452-.578.691-.856q.452-.53.939-1.037c.282-.295.577-.576.872-.856.264-.251.529-.501.807-.742.388-.337.792-.655 1.2-.971.209-.158.413-.323.627-.477.568-.409 1.158-.79 1.762-1.153l.163-.098.462-.279c.118-.066.226-.15.346-.214L492.829 96.827l.017-.016 5.563-3.145a193.5 193.5 0 0 1 51.13-19.062 260.5 260.5 0 0 0-109.898-23.935m-68.677 362.14-1.022 273.379 135.267-77.617 4.888-2.978a175.7 175.7 0 0 0 58.554-61.157 175.7 175.7 0 0 0 23.244-87.179v-.117l1.004-170.657zm219.038-292.095a142.8 142.8 0 0 0-71.525 19.705l-.017-.017-308.458 181.687v299.75l109.37 63.493 1.087-287.354.032-.708c.017-.483.024-.967.068-1.449l.032-.428a25.2 25.2 0 0 1 8.082-15.967c.066-.061.115-.138.181-.199.296-.263.613-.504.922-.757q.524-.423 1.07-.823.3-.218.609-.428c.494-.339.996-.667 1.515-.971q.13-.073.263-.148l256.061-145.703a130 130 0 0 1 64.859-17.366 130 130 0 0 1 65.007 17.4 130 130 0 0 1 12.314 8.083 142.8 142.8 0 0 0-17.071-46.67 142.9 142.9 0 0 0-52.644-52.298 142.86 142.86 0 0 0-71.757-18.832"/></g><defs><clipPath id="a"><path fill="#fff" d="M0 0h785v936H0z"/></clipPath></defs></svg>