<svg xmlns="http://www.w3.org/2000/svg" width="776" height="936" fill="none" viewBox="0 0 776 936"><g clip-path="url(#a)"><path fill="#ffa011" d="M406.22.593c.52.007 1.042.02 1.564.062.078.006.154.023.232.03a23.6 23.6 0 0 1 4.137.744l.433.109c.164.048.319.119.481.17q.498.16.992.341.548.204 1.085.434c.141.06.292.106.433.17l.325.17c.414.194.823.389 1.225.605q.108.062.216.124l.403.217 346.136 199.847a23.8 23.8 0 0 1 11.899 20.608v39.678c.005.211.002.422 0 .635v286.13c-.003 80.649-41.732 155.345-109.925 197.711l-6.678 3.997-313.043 180.311a23.79 23.79 0 0 1-23.766-.015l-124.86-72.059c-.091-.049-.175-.107-.264-.156L12.27 753.724A23.8 23.8 0 0 1 .371 733.116V367.242c0-84.19 45.457-161.828 118.881-203.025l30.165-16.919c.052-.028.103-.063.155-.092a23.8 23.8 0 0 1 4.353-1.859c.281-.089.568-.154.852-.233a23 23 0 0 1 1.427-.356c.179-.038.361-.06.541-.093.62-.115 1.237-.215 1.859-.28l.171-.014q.97-.094 1.936-.109h.357c.233 0 .465.025.698.031.501.016 1.003.03 1.502.078.354.032.703.09 1.054.14.403.055.809.093 1.209.169.444.085.88.202 1.317.31.215.055.434.095.65.155l.65.186c.332.103.651.239.976.357.259.092.521.176.774.279.481.192.946.413 1.411.635.206.098.416.19.62.295q.64.33 1.255.696c.281.167.562.333.836.511.356.232.697.479 1.038.728q.433.316.853.651.465.377.914.776c.27.239.544.474.806.728.275.266.527.555.79.836.276.295.559.587.82.898.338.4.651.819.962 1.241.112.152.246.291.355.449 2.445 3.484 3.952 7.651 4.23 12.162.027.439.06.877.062 1.317.001.055.016.114.016.169v630.315l24.107 13.914 519.213-293.18V304.82L415.824 478.066a23.82 23.82 0 0 1-23.658-.325 23.8 23.8 0 0 1-11.681-20.576l1.41-392.182-79.172 44.171 1.891 504.385 210.709-116.014c11.511-6.337 25.979-2.136 32.319 9.375 6.338 11.511 2.154 25.995-9.358 32.333L292.436 674.599a23.6 23.6 0 0 1-10.319 2.897c-.222.011-.444.027-.666.03-.128.003-.258.032-.387.032-.313.002-.62-.037-.93-.046-.284-.011-.569-.011-.852-.032a23 23 0 0 1-1.642-.185c-.13-.019-.26-.027-.388-.046a24 24 0 0 1-1.782-.357l-.325-.078a23 23 0 0 1-1.844-.543q-.061-.022-.124-.046a24 24 0 0 1-1.626-.634c-.203-.088-.404-.172-.604-.264a24 24 0 0 1-1.317-.666c-.208-.113-.416-.222-.62-.341-.367-.214-.716-.451-1.07-.682-.28-.183-.563-.362-.836-.557a23.447 23.447 0 0 1-1.751-1.379 26 26 0 0 1-.727-.666 23 23 0 0 1-1.456-1.488q-.439-.497-.854-1.022a23 23 0 0 1-.479-.636 24 24 0 0 1-.838-1.193c-.128-.199-.247-.402-.371-.605-.174-.287-.363-.569-.527-.868q-.087-.161-.169-.325c-.157-.293-.291-.598-.435-.898a23.7 23.7 0 0 1-2.34-10.458l-2.075-558.224.108-2.433a23.6 23.6 0 0 1 3.625-10.442c.07-.11.146-.217.217-.326a24 24 0 0 1 2.402-3.083c.279-.302.586-.579.882-.867.224-.217.436-.444.667-.651.379-.339.774-.66 1.178-.976.149-.118.295-.242.449-.356a24 24 0 0 1 1.906-1.286c.255-.156.511-.318.774-.465L393.762 3.877c.44-.258.879-.515 1.333-.743.208-.106.423-.195.634-.295.37-.173.74-.342 1.116-.496a24 24 0 0 1 1.163-.433c.277-.097.555-.193.836-.28.454-.139.914-.258 1.379-.371.253-.062.504-.133.759-.186.434-.09.875-.15 1.317-.217.243-.037.484-.08.729-.108.119-.015.236-.035.355-.047.273-.028.547-.043.822-.062.371-.026.742-.038 1.115-.046.089-.002.176-.015.263-.016h.357c.092 0 .186.014.28.016m-149.373 839.32 77.405 44.682 301.175-173.463 5.315-3.176c47.417-29.46 78.738-78.574 85.879-133.32zM137.27 208.807c-55.307 33.465-89.303 93.497-89.303 158.435v352.132l89.303 51.531zm290.95 207.936 299.966-166.351V237.95L429.491 65.494z"/></g><defs><clipPath id="a"><path fill="#fff" d="M0 0h776v936H0z"/></clipPath></defs></svg>