<svg width="802" height="811" viewBox="0 0 802 811" fill="none" xmlns="http://www.w3.org/2000/svg">
<g opacity="0.12" filter="url(#filter0_f_7923_8553)">
</g>
<path d="M404.554 310.576C404.59 310.577 404.626 310.579 404.662 310.582C404.687 310.584 404.711 310.586 404.735 310.589C404.754 310.591 404.773 310.593 404.792 310.596C404.806 310.598 404.82 310.601 404.834 310.604C404.864 310.609 404.893 310.614 404.922 310.62C404.962 310.629 405.001 310.639 405.04 310.65C405.056 310.654 405.071 310.658 405.087 310.662C405.127 310.675 405.166 310.689 405.205 310.703C405.226 310.711 405.247 310.719 405.268 310.728C405.305 310.743 405.342 310.76 405.379 310.778C405.393 310.784 405.406 310.791 405.42 310.798C405.457 310.817 405.494 310.838 405.53 310.86L473.68 350.207C474.298 350.565 474.68 351.225 474.68 351.939V359.793C474.681 359.823 474.68 359.852 474.68 359.882V435.275C474.68 438.934 472.725 442.315 469.554 444.142L391.397 489.158C390.779 489.514 390.018 489.514 389.4 489.157L364.75 474.932C364.734 474.923 364.719 474.914 364.703 474.905L328.32 453.909C327.701 453.552 327.32 452.892 327.32 452.177V360.825C327.32 357.125 329.318 353.712 332.546 351.901L355.305 339.131L355.488 339.04C355.553 339.012 355.619 338.989 355.685 338.968C355.694 338.965 355.703 338.963 355.712 338.96C355.832 338.924 355.954 338.9 356.076 338.887C356.081 338.886 356.087 338.886 356.092 338.886C356.148 338.881 356.205 338.878 356.262 338.877C356.27 338.877 356.278 338.876 356.286 338.876C356.296 338.876 356.306 338.877 356.315 338.877C356.364 338.878 356.413 338.881 356.461 338.885C356.479 338.887 356.496 338.888 356.514 338.89C356.559 338.895 356.604 338.902 356.649 338.91C356.669 338.914 356.689 338.918 356.708 338.922C356.743 338.93 356.779 338.939 356.813 338.948C356.846 338.957 356.878 338.966 356.909 338.976C356.923 338.98 356.936 338.987 356.95 338.991C357.128 339.054 357.294 339.141 357.444 339.248C357.532 339.31 357.615 339.379 357.692 339.455C357.77 339.533 357.841 339.617 357.905 339.706C357.913 339.717 357.922 339.727 357.93 339.739C358.154 340.062 358.286 340.453 358.286 340.876V466.582L365.711 470.867L470.68 411.592V363.249L405.162 399.587C404.542 399.931 403.786 399.921 403.175 399.56C402.564 399.199 402.19 398.541 402.192 397.831L402.488 315.987L381.495 327.701L381.891 433.165L427.36 408.128C428.328 407.595 429.544 407.948 430.077 408.915C430.61 409.883 430.257 411.099 429.29 411.632L380.885 438.285C380.596 438.448 380.265 438.545 379.91 438.546C379.789 438.547 379.671 438.533 379.556 438.513C379.546 438.511 379.535 438.511 379.525 438.509C379.481 438.501 379.438 438.489 379.395 438.478C379.375 438.473 379.355 438.469 379.336 438.463C379.287 438.449 379.24 438.431 379.192 438.413C379.18 438.409 379.168 438.405 379.156 438.401C379.118 438.385 379.081 438.368 379.044 438.35C379.019 438.338 378.994 438.327 378.97 438.315C378.948 438.303 378.927 438.29 378.906 438.278C378.869 438.256 378.832 438.235 378.796 438.211C378.788 438.206 378.78 438.199 378.771 438.194C378.521 438.023 378.305 437.794 378.148 437.51C377.968 437.183 377.89 436.826 377.902 436.478L377.491 326.539L377.493 326.495C377.494 326.444 377.495 326.394 377.5 326.343L377.501 326.334C377.511 326.235 377.529 326.138 377.553 326.043C377.559 326.02 377.564 325.997 377.57 325.974C377.605 325.853 377.651 325.737 377.707 325.627C377.808 325.426 377.945 325.243 378.112 325.083C378.126 325.07 378.139 325.057 378.153 325.044C378.187 325.014 378.222 324.985 378.259 324.956C378.27 324.948 378.282 324.939 378.293 324.931C378.327 324.906 378.361 324.881 378.396 324.858C378.419 324.843 378.441 324.829 378.464 324.816C378.481 324.805 378.499 324.794 378.517 324.783L403.473 310.86C403.513 310.836 403.554 310.812 403.596 310.791C403.615 310.781 403.635 310.772 403.654 310.763C403.684 310.749 403.714 310.735 403.744 310.723C403.775 310.71 403.806 310.699 403.838 310.688C403.863 310.679 403.889 310.67 403.915 310.662C403.949 310.652 403.984 310.643 404.019 310.634C404.041 310.628 404.063 310.623 404.086 310.618C404.118 310.612 404.151 310.606 404.184 310.601C404.22 310.595 404.256 310.59 404.292 310.586C404.309 310.584 404.326 310.583 404.344 310.581C404.365 310.58 404.387 310.577 404.408 310.576C404.431 310.575 404.454 310.576 404.477 310.575C404.487 310.575 404.498 310.574 404.509 310.574C404.524 310.575 404.539 310.576 404.554 310.576ZM369.734 473.189L390.4 485.115L467.558 440.675C469.489 439.562 470.68 437.503 470.68 435.275V416.186L369.734 473.189ZM334.504 355.389C332.538 356.492 331.32 358.571 331.32 360.825V451.021L354.286 464.274V344.29L334.504 355.389ZM406.204 394.436L470.68 358.676V353.093L406.488 316.031L406.204 394.436Z" fill="#FFA011" style="fill:#FFA011;fill:color(display-p3 1.0000 0.6267 0.0667);fill-opacity:1;"/>
<defs>
</defs>
</svg>
