<svg xmlns="http://www.w3.org/2000/svg" width="776" height="936" fill="none" viewBox="0 0 776 936"><g clip-path="url(#a)"><path fill="#000" d="M406.132.593c.521.007 1.043.02 1.565.062.077.006.154.023.231.03a23.6 23.6 0 0 1 4.138.744l.433.109c.163.048.319.119.481.17q.496.16.991.341.549.204 1.086.434c.141.06.291.106.433.17l.325.17c.414.194.823.389 1.225.605q.108.062.215.124l.403.217 346.137 199.847a23.8 23.8 0 0 1 11.899 20.608v39.678c.005.211.001.422 0 .635v286.13c-.003 80.649-41.732 155.345-109.925 197.711l-6.678 3.997-313.043 180.311a23.79 23.79 0 0 1-23.766-.015l-124.861-72.059c-.09-.049-.174-.107-.263-.156L12.183 753.724A23.8 23.8 0 0 1 .284 733.116V367.242c0-84.19 45.457-161.828 118.881-203.025l30.164-16.919c.053-.028.103-.063.156-.092a23.7 23.7 0 0 1 4.353-1.859c.281-.089.568-.154.852-.233a23 23 0 0 1 1.426-.356c.18-.038.362-.06.541-.093a24 24 0 0 1 1.86-.28l.171-.014q.97-.094 1.936-.109h.357c.233 0 .465.025.698.031.501.016 1.002.03 1.502.078.354.032.703.09 1.054.14.403.055.809.093 1.209.169.444.085.88.202 1.316.31.216.055.435.095.651.155l.65.186c.332.103.651.239.976.357.259.092.52.176.774.279.481.192.946.413 1.411.635.206.098.415.19.62.295q.64.33 1.255.696c.281.167.562.333.836.511.355.232.697.479 1.038.728q.432.316.853.651.465.377.914.776c.27.239.544.474.806.728.274.266.527.555.79.836.276.295.559.587.82.898.338.4.651.819.962 1.241.112.152.246.291.355.449 2.445 3.484 3.952 7.651 4.23 12.162.027.439.06.877.062 1.317.001.055.015.114.015.169v630.315l24.108 13.914 519.212-293.18V304.82L415.737 478.066a23.82 23.82 0 0 1-23.658-.325 23.8 23.8 0 0 1-11.681-20.576l1.41-392.182-79.172 44.171 1.891 504.385 210.709-116.014c11.511-6.337 25.979-2.136 32.318 9.375s2.155 25.995-9.357 32.333L292.349 674.599a23.6 23.6 0 0 1-10.319 2.897c-.222.011-.444.027-.666.03-.128.003-.259.032-.387.032-.313.002-.62-.037-.93-.046-.284-.011-.569-.011-.852-.032a23 23 0 0 1-1.642-.185c-.13-.019-.26-.027-.389-.046a25 25 0 0 1-1.781-.357l-.325-.078a23 23 0 0 1-1.844-.543q-.061-.022-.124-.046a24 24 0 0 1-1.626-.634c-.203-.088-.404-.172-.604-.264a24 24 0 0 1-1.317-.666c-.208-.113-.416-.222-.62-.341-.367-.214-.716-.451-1.07-.682-.281-.183-.563-.362-.836-.557a23 23 0 0 1-1.751-1.379 26 26 0 0 1-.727-.666 21.734 21.734 0 0 1-2.789-3.146 24 24 0 0 1-.838-1.193c-.128-.199-.247-.402-.371-.605-.175-.287-.363-.569-.527-.868q-.087-.161-.17-.325c-.157-.293-.29-.598-.434-.898a23.6 23.6 0 0 1-2.34-10.458l-2.075-558.224.107-2.433a23.6 23.6 0 0 1 3.626-10.442c.069-.11.146-.217.217-.326a24 24 0 0 1 2.402-3.083c.279-.302.585-.579.882-.867.224-.217.436-.444.666-.651.38-.339.775-.66 1.179-.976.149-.118.295-.242.449-.356a24 24 0 0 1 1.906-1.286c.255-.156.51-.318.774-.465L393.675 3.877c.44-.258.879-.515 1.333-.743.208-.106.423-.195.634-.295.37-.173.74-.342 1.116-.496a24 24 0 0 1 1.163-.433c.277-.097.555-.193.836-.28.453-.139.914-.258 1.378-.371.254-.062.505-.133.76-.186.433-.09.874-.15 1.317-.217.243-.037.484-.08.728-.108.119-.015.237-.035.356-.047.273-.028.547-.043.822-.062.371-.026.742-.038 1.115-.046.089-.002.176-.015.263-.016h.357c.092 0 .186.014.279.016M256.76 839.913l77.405 44.682L635.34 711.132l5.314-3.176c47.418-29.46 78.739-78.574 85.88-133.32zM137.183 208.807C81.875 242.272 47.88 302.304 47.88 367.242v352.132l89.303 51.531zm290.95 207.936 299.965-166.351V237.95L429.403 65.494z"/></g><defs><clipPath id="a"><path fill="#fff" d="M0 0h776v936H0z"/></clipPath></defs></svg>