<svg width="175" height="175" viewBox="0 0 175 175" fill="none" xmlns="http://www.w3.org/2000/svg">
<path d="M55.2576 83.2165C55.4116 78.4569 55.6527 73.726 58.4 69.0852C61.1317 64.4706 66.081 60.3417 74.646 55.8568L77.2151 54.5164C87.8897 48.9672 100.681 42.5436 108.751 38.5302L102.03 34.0321C90.4777 39.2212 69.5777 48.6907 64.7108 51.1892L64.2735 51.4173C61.7289 52.7825 57.222 55.3503 53.4022 59.3061C49.6125 63.2308 46.6467 68.3595 46.7831 74.9546C47.0258 86.6838 45.9418 110.399 45.291 122.348L53.8198 127.635L55.2576 83.2165ZM96.4197 82.5244L96.8005 70.7581C95.3444 71.541 93.6581 72.4459 91.8191 73.4226L87.0775 75.9257C83.3531 77.8798 82.1627 79.4894 81.611 81.0484C81.2978 81.9336 81.127 82.9859 81.0346 84.3968C80.9384 85.8675 80.9396 87.392 80.8732 89.445L80.5124 100.591L89.9912 95.031L90.6609 94.6247C93.8751 92.6081 95.1157 90.7948 95.6966 89.2252C96.3999 87.3249 96.3249 85.4522 96.4197 82.5244ZM134.283 99.0022C133.779 114.588 121.036 121.858 113.823 126.163L112.459 126.987C106.541 130.625 86.1254 141.935 76.7245 147.099C75.7757 147.62 74.6192 147.59 73.6991 147.019L40.6187 126.512C39.6852 125.933 39.1431 124.889 39.205 123.793C39.8396 112.544 41.0346 87.1533 40.7847 75.079C40.6054 66.4117 44.5657 59.8188 49.0856 55.1379C53.5754 50.4882 58.762 47.5657 61.4372 46.1304L61.8964 45.8893C67.2231 43.151 90.1081 32.8025 101.089 27.8773L101.267 27.8039C102.167 27.4676 103.179 27.5828 103.984 28.1215L134.504 48.5464C135.364 49.1224 135.866 50.1017 135.833 51.1366L134.283 99.0022ZM102.417 82.7185C102.341 85.0491 102.459 88.2422 101.324 91.3088C100.238 94.2412 98.1365 96.8753 94.4555 99.3144L94.0271 112.55C97.3532 110.807 101.77 108.464 106.172 106.04L106.5 105.853C109.849 103.892 111.759 100.93 112.89 97.3619C114.085 93.5888 114.352 89.3146 114.487 85.1337L115.842 43.2768L114.498 42.3763C106.974 46.1014 92.0989 53.5413 79.9858 59.8383L77.4296 61.1713C69.244 65.4575 65.4575 68.9424 63.5636 72.1415C61.6854 75.3142 61.4102 78.5974 61.2544 83.4106L59.7048 131.283L75.3695 140.995C85.3397 135.508 103.851 125.236 109.316 121.875L112.346 120.035C119.624 115.602 127.925 109.981 128.286 98.808L129.782 52.6057L121.718 47.2092L120.484 85.3279C120.349 89.5067 120.081 94.5298 118.609 99.1739C117.156 103.759 114.482 108.126 109.551 111.02L109.066 111.295C101.996 115.189 94.9016 118.881 92.2264 120.246C91.2811 120.728 90.1515 120.675 89.2557 120.106C88.3597 119.537 87.8302 118.538 87.8645 117.477L88.3344 102.958L78.8556 108.521C77.9129 109.073 76.7438 109.07 75.8044 108.512C74.8651 107.953 74.3042 106.928 74.3395 105.836L74.8763 89.2509C74.9342 87.4613 74.9431 85.5947 75.0471 84.0056C75.155 82.3568 75.377 80.6796 75.9551 79.0461C77.1862 75.5677 79.7761 72.9804 84.2899 70.6121L89.0067 68.1218C93.4665 65.7532 97.0271 63.8234 98.527 63.0013C99.4715 62.4839 100.621 62.5126 101.539 63.0763C102.457 63.6402 103.001 64.6528 102.966 65.7294L102.417 82.7185Z" fill="#B8FF39"/>
</svg>
