<svg xmlns="http://www.w3.org/2000/svg" width="735" height="936" fill="none" viewBox="0 0 735 936"><g clip-path="url(#a)"><path fill="#000" d="M431.514 7.128c24.903-10.803 53.723-8.53 76.714 6.345l215.04 139.151c.096.062.189.142.284.207l.096.063c7.095 4.781 10.874 12.665 10.724 20.669v355.444c0 89.058-46.827 171.559-123.304 217.197L298.947 932.452c-8.047 4.8-17.732 4.413-25.207-.159L12.27 783.229l-2.093-1.334C2.897 776.708-.755 768.063.135 759.529V383.543c.003-94.656 52.867-181.391 136.993-224.78L426.581 9.476zM240.492 288.903c-47.721 25.62-77.505 75.407-77.507 129.57V813.05l123.207 70.258 299.893-178.951c61.742-36.844 99.556-103.45 99.556-175.35v-342.69l-66.102-42.766v344.465c-.002 70.171-37.562 134.989-98.446 169.877l-113.23 64.881-.366.174q-.768.425-1.57.793l-.285.159c-.073.032-.151.049-.222.079a24 24 0 0 1-1.777.683c-.099.034-.202.061-.301.094-.58.19-1.164.362-1.761.508q-.23.058-.461.111a24 24 0 0 1-1.634.302c-.244.037-.484.081-.729.11q-.67.084-1.349.127a24 24 0 0 1-1.078.049c-.189.003-.382.031-.57.031-.145 0-.286-.03-.429-.031a24 24 0 0 1-2.49-.176 25.322 25.322 0 0 1-2.237-.364c-.262-.056-.518-.125-.778-.191a25 25 0 0 1-1.951-.57 25 25 0 0 1-1.475-.556c-.296-.122-.581-.261-.872-.396-.33-.153-.663-.293-.985-.46a25 25 0 0 1-1.158-.651c-.239-.142-.479-.278-.713-.428-.33-.211-.646-.44-.968-.666a25 25 0 0 1-.967-.714 24.732 24.732 0 0 1-2.269-2.014 25 25 0 0 1-.982-1.063c-.192-.217-.373-.442-.556-.667a25 25 0 0 1-.778-.999c-.198-.272-.398-.543-.587-.826-.238-.354-.477-.709-.698-1.078-.08-.133-.175-.26-.253-.397-.077-.133-.134-.279-.207-.412a24 24 0 0 1-.745-1.475c-.101-.218-.208-.432-.301-.65a24 24 0 0 1-.476-1.221c-.149-.408-.302-.811-.429-1.222-.066-.219-.113-.445-.175-.666a24.5 24.5 0 0 1-.746-3.807l-.014-.176-.049-.65c-.031-.424-.07-.846-.078-1.268V584.956l-72.543 42.972a24.39 24.39 0 0 1-24.492.207 24.38 24.38 0 0 1-12.294-21.161v-148.13c.002-48.995 25.873-94.351 68.037-119.306l121.717-72.049 2.902-1.46a24.36 24.36 0 0 1 33.869 22.431v148.049c0 48.978-25.836 94.327-67.974 119.291l-.65.363c.005.044.028.085.031.129l.128 2.49v100.794l76.746-43.973c45.726-26.205 73.935-74.884 73.936-127.587V112.015l-.38-.255zM481.753 54.4a32.8 32.8 0 0 0-30.854-2.554l-1.983.936-289.453 149.287C91.547 237.098 48.869 307.125 48.866 383.543v364.453l65.388 37.278V418.473c.001-72.112 39.654-138.385 103.188-172.496l306.285-164.42zM354.911 381.465a89.93 89.93 0 0 0-44.114 77.379v105.363l84.977-50.334 4.999-3.189a89.91 89.91 0 0 0 39.085-74.175V331.194z"/></g><defs><clipPath id="a"><path fill="#fff" d="M0 0h735v936H0z"/></clipPath></defs></svg>