<svg xmlns="http://www.w3.org/2000/svg" width="735" height="936" fill="none" viewBox="0 0 735 936"><g clip-path="url(#a)"><path fill="#bfff00" d="M431.604 7.128c24.903-10.804 53.723-8.53 76.714 6.345l215.04 139.151c.096.062.188.141.284.206q.05.031.096.064c7.095 4.78 10.874 12.665 10.724 20.668v355.445c0 89.058-46.827 171.558-123.305 217.197l-312.12 186.247c-8.048 4.8-17.732 4.414-25.207-.159L12.36 783.228l-2.094-1.334C2.988 776.708-.666 768.063.224 759.528V383.542c.004-94.656 52.867-181.391 136.994-224.78L426.67 9.475zM240.582 288.903c-47.721 25.619-77.506 75.406-77.507 129.57V813.05l123.207 70.257 299.892-178.951c61.743-36.844 99.557-103.45 99.557-175.349v-342.69l-66.103-42.767v344.465c-.001 70.172-37.562 134.989-98.445 169.878l-113.23 64.881-.366.173c-.513.285-1.034.548-1.571.793l-.284.159c-.073.033-.151.049-.222.08-.582.252-1.173.476-1.777.682-.1.034-.202.062-.301.094-.58.19-1.165.363-1.761.509q-.23.057-.461.11c-.538.122-1.082.218-1.634.302-.244.038-.484.082-.73.111a24 24 0 0 1-2.426.175c-.189.004-.382.031-.571.031-.144 0-.285-.029-.428-.031a25 25 0 0 1-3.205-.269 26 26 0 0 1-1.522-.27c-.262-.057-.519-.125-.778-.192-.46-.115-.915-.238-1.365-.38q-.294-.091-.586-.19-.749-.254-1.475-.555c-.296-.122-.582-.262-.873-.397-.329-.152-.662-.292-.984-.459a24 24 0 0 1-1.158-.652c-.239-.141-.479-.278-.713-.427-.33-.211-.647-.44-.968-.666a23 23 0 0 1-1.634-1.254 24 24 0 0 1-1.602-1.475c-.34-.343-.664-.7-.983-1.062-.191-.218-.372-.442-.555-.668a24 24 0 0 1-.778-.999c-.199-.271-.398-.542-.587-.825a24 24 0 0 1-.698-1.079c-.08-.133-.176-.26-.254-.396-.076-.133-.133-.279-.206-.413a24 24 0 0 1-.746-1.475c-.1-.217-.207-.432-.3-.649a23 23 0 0 1-.476-1.222c-.149-.408-.302-.81-.429-1.221-.066-.22-.114-.445-.175-.666a24.4 24.4 0 0 1-.746-3.808l-.014-.175-.049-.65c-.031-.424-.07-.846-.078-1.269V584.955l-72.543 42.973a24.39 24.39 0 0 1-24.493.206 24.37 24.37 0 0 1-12.293-21.161v-148.13c.002-48.994 25.873-94.35 68.037-119.305l121.716-72.05 2.903-1.46a24.37 24.37 0 0 1 21.575 1.269 24.36 24.36 0 0 1 12.293 21.162v148.049c0 48.978-25.835 94.328-67.973 119.291l-.65.364c.005.044.028.084.031.128l.128 2.49v100.795l76.745-43.974c45.727-26.204 73.936-74.884 73.937-127.587v-376l-.38-.255zm241.26-234.504a32.8 32.8 0 0 0-30.853-2.553l-1.983.936-289.453 149.286C91.636 237.098 48.959 307.125 48.956 383.542v364.453l65.387 37.278v-366.8c.002-72.113 39.655-138.386 103.189-172.496l306.284-164.42zM355.001 381.464c-27.341 16.184-44.113 45.606-44.115 77.379v105.364l84.978-50.335 4.998-3.188a89.91 89.91 0 0 0 39.086-74.176V331.193z"/></g><defs><clipPath id="a"><path fill="#fff" d="M0 0h735v936H0z"/></clipPath></defs></svg>