<svg xmlns="http://www.w3.org/2000/svg" width="757" height="936" fill="none" viewBox="0 0 757 936"><g clip-path="url(#a)"><path fill="#000" d="M379.177.792q.813.019 1.621.093l1.278.094a23.9 23.9 0 0 1 8.833 3.007L508.801 72.1l.016.015 118.172 68.364 117.893 68.115 2.632 1.76a23.94 23.94 0 0 1 9.317 18.961V580.36c-.001 83.996-43.402 161.81-114.37 206.027l-6.95 4.175-8.537 4.94c-.591.341-1.223.6-1.839.887l-113.841 65.606a24 24 0 0 1-2.774 1.886l-117.892 68.114a23.94 23.94 0 0 1-11.965 3.21h-.281c-3.158 0-6.277-.619-9.176-1.823l-2.819-1.401-117.316-67.944-.265-.124-118.173-68.116c-.493-.284-.946-.632-1.417-.951l-116.771-67.46A23.94 23.94 0 0 1 .479 706.665V355.638c.003-86.715 46.263-166.847 121.352-210.219L366.682 3.986l.234-.14c.38-.215.776-.399 1.168-.593l.779-.389c.108-.049.218-.093.327-.14.225-.097.458-.175.686-.265.472-.187.94-.375 1.418-.53.262-.085.528-.158.795-.233q.736-.212 1.48-.374c.243-.053.487-.095.732-.14a24 24 0 0 1 1.668-.25q.247-.025.497-.047a24 24 0 0 1 1.886-.093c.104-.001.207-.016.311-.016h.281zM236.374 270.789c-43.39 25.041-70.125 71.333-70.126 121.429V761.07l106.317 61.275.186.109 105.772 61.244 103.294-59.669a24 24 0 0 1 2.788-1.87l118.174-68.116 1.838-.919 6.948-4.004 5.577-3.349c56.98-35.499 91.827-97.973 91.828-165.411V243.119l-70.062-40.476-.187 341.245c-.038 67.128-35.867 129.148-93.993 162.731l-148.552 85.797c-6.894 7.208-17.709 9.499-27.016 5.329l-2.181-1.122-118.173-68.116a24 24 0 0 1-4.985-3.8l-.266-.281-1.652-1.823c-4.368-5.361-6.053-12.174-5.078-18.664V365.826c.002-13.215 10.715-23.931 23.931-23.931 13.214 0 23.927 10.716 23.93 23.931v123.735L472.61 380.814V243.119l-94.228-54.311zm-90.612-83.927c-60.286 34.82-97.418 99.157-97.422 168.776v337.208l70.047 40.46V392.218c.001-67.2 35.865-129.299 94.071-162.886l153.975-88.852 2.851-1.401a23.94 23.94 0 0 1 21.064 1.386l115.321 66.463c7.787 3.217 13.481 10.421 14.583 19.07.021.15.045.301.062.451q.026.249.047.5c.07.697.102 1.399.11 2.102V570.17c-.002 13.216-10.715 23.931-23.931 23.931s-23.93-10.715-23.93-23.931V436.09L284.686 544.839v149.113l93.245 53.751 142.851-82.527c43.332-25.035 70.048-71.26 70.078-121.304l.203-368.883-106.193-61.462-106.066-61.275z"/></g><defs><clipPath id="a"><path fill="#fff" d="M0 0h757v936H0z"/></clipPath></defs></svg>