<svg width="175" height="175" viewBox="0 0 175 175" fill="none" xmlns="http://www.w3.org/2000/svg">
<path d="M24.208 69.166C24.208 55.8944 32.0428 40.8151 45.4023 32.749L47.3994 31.5497C57.9651 25.2344 76.8326 14.362 85.4219 9.44329L85.5986 9.34954C86.4947 8.91287 87.5552 8.94858 88.4238 9.45501L149.304 44.9492C150.225 45.4867 150.792 46.4738 150.792 47.541V106.642C150.776 112.351 150.573 117.974 148.332 123.404C145.794 129.554 140.825 135.115 131.666 140.768L130.767 141.315C117.563 149.238 101.006 158.57 91.8154 163.672L88.3584 165.582C87.4406 166.087 86.3261 166.076 85.418 165.555L25.7129 131.236C24.782 130.701 24.2082 129.709 24.208 128.636V69.166ZM30.208 126.898L86.9404 159.51C95.5224 154.768 113.553 144.646 127.68 136.17L128.515 135.662C137 130.426 140.884 125.725 142.786 121.115C144.808 116.215 144.792 111.036 144.792 104.189V49.2626L86.9014 15.5126C77.7677 20.7505 60.4135 30.7612 50.4873 36.6943L48.5039 37.8857C36.9473 44.8632 30.208 57.9916 30.208 69.166V126.898Z" fill="#1CDB97"/>
<path d="M70.168 70.1063V125.963L88.2881 136.432C92.4713 133.92 101.141 128.819 112.007 122.727L112.656 122.354C119.247 118.475 122.297 113.743 123.804 108.27C125.433 102.351 125.282 95.5586 125.282 87.4998V36.9627H131.282V87.4998C131.282 95.1897 131.486 102.971 129.589 109.863C127.679 116.8 123.673 122.824 115.723 127.512L114.941 127.962C102.558 134.904 93.0622 140.542 89.8848 142.479C88.9474 143.051 87.7729 143.065 86.8223 142.515L65.667 130.293C64.7393 129.757 64.168 128.767 64.168 127.695V70.1063H70.168ZM43.9531 78.5682C43.9531 73.3327 44.2344 67.5754 46.6377 62.0115C49.0831 56.3501 53.5869 51.1835 61.4795 46.7987L65.793 44.3934C75.5539 38.9328 83.0747 34.5983 85.8672 32.9637L86.0498 32.8651C86.9743 32.4064 88.0762 32.4535 88.9619 33.0018L108.707 45.2244L108.868 45.3319C109.655 45.8922 110.128 46.8013 110.128 47.7752V104.659H104.128V49.4461L87.332 39.0496C83.7745 41.1127 77.0599 44.9664 68.7207 49.6317L64.3936 52.0438C57.478 55.8858 53.9897 60.1209 52.1455 64.3905C50.2591 68.7577 49.9531 73.4612 49.9531 78.5682V139.918H43.9531V78.5682Z" fill="#1CDB97"/>
<path d="M108.586 79.3096L68.8613 101.404L65.9453 96.1612L105.67 74.0655L108.586 79.3096Z" fill="#1CDB97"/>
</svg>
