<svg xmlns="http://www.w3.org/2000/svg" width="757" height="936" fill="none" viewBox="0 0 757 936"><g clip-path="url(#a)"><path fill="#0ee09e" d="M379.265.792q.812.019 1.62.093l1.278.094a23.9 23.9 0 0 1 8.834 3.007L508.888 72.1l.016.015 118.172 68.364 117.894 68.115 2.632 1.76a23.95 23.95 0 0 1 9.317 18.961V580.36c-.002 83.996-43.402 161.81-114.371 206.027l-6.949 4.175-8.537 4.94c-.592.341-1.223.6-1.839.887l-113.841 65.606a24 24 0 0 1-2.774 1.886l-117.892 68.114a23.95 23.95 0 0 1-11.965 3.21h-.281c-3.159 0-6.278-.619-9.177-1.823l-2.819-1.401-117.315-67.944-.265-.124-118.174-68.116c-.493-.284-.946-.632-1.416-.951l-116.772-67.46A23.94 23.94 0 0 1 .567 706.665V355.638C.57 268.923 46.83 188.791 121.92 145.419L366.77 3.986l.234-.14c.38-.215.775-.399 1.168-.593l.778-.389c.109-.049.219-.093.328-.14.224-.097.457-.175.686-.265.472-.187.939-.375 1.418-.53.261-.085.528-.158.794-.233q.738-.212 1.481-.374c.242-.053.486-.095.732-.14a24 24 0 0 1 1.667-.25q.248-.025.498-.047a24 24 0 0 1 1.886-.093c.103-.001.207-.016.311-.016h.281zM236.461 270.789c-43.389 25.041-70.124 71.333-70.126 121.429V761.07l106.317 61.275.187.109 105.771 61.244 103.294-59.669a24 24 0 0 1 2.789-1.87l118.174-68.116 1.838-.919 6.948-4.004 5.577-3.349c56.98-35.499 91.826-97.973 91.828-165.411V243.119l-70.062-40.476-.187 341.245c-.038 67.128-35.867 129.148-93.993 162.731l-148.553 85.797c-6.893 7.208-17.708 9.499-27.016 5.329l-2.181-1.122-118.172-68.116a24 24 0 0 1-4.985-3.8l-.267-.281-1.651-1.823c-4.368-5.361-6.053-12.174-5.078-18.664V365.826c.001-13.215 10.714-23.931 23.93-23.931s23.928 10.716 23.931 23.931v123.735l187.923-108.747V243.119l-94.227-54.311zm-90.612-83.927c-60.286 34.82-97.418 99.157-97.421 168.776v337.208l70.046 40.46V392.218c.002-67.2 35.866-129.299 94.071-162.886l153.976-88.852 2.851-1.401a23.94 23.94 0 0 1 21.063 1.386l115.322 66.463c7.787 3.217 13.48 10.421 14.583 19.07.021.15.045.301.062.451q.026.249.046.5c.071.697.103 1.399.11 2.102V570.17c-.001 13.216-10.714 23.931-23.93 23.931s-23.931-10.715-23.931-23.931V436.09L284.774 544.839v149.113l93.245 53.751 142.851-82.527c43.331-25.035 70.047-71.26 70.078-121.304l.202-368.883-106.192-61.462-106.067-61.275z"/></g><defs><clipPath id="a"><path fill="#fff" d="M0 0h757v936H0z"/></clipPath></defs></svg>