<svg width="22" height="23" viewBox="0 0 22 23" fill="none" xmlns="http://www.w3.org/2000/svg">
<g clip-path="url(#clip0_1023_297)">
<path d="M12.2977 5.45242H15.4827C14.6275 2.71152 13.2267 0.698103 11.612 0.102896L11.1328 0.0514526V4.2179C11.413 4.31312 11.666 4.47447 11.8701 4.68819C12.0743 4.90346 12.2212 5.16615 12.2977 5.45242Z" fill="#E44B2A"/>
<path d="M8.90622 6.48853H5.47794C5.12152 7.96222 4.92624 9.47005 4.89551 10.9856H10.1153V7.59811C9.84093 7.51969 9.58854 7.37883 9.37807 7.18661C9.16744 6.99453 9.0057 6.75524 8.90622 6.48853Z" fill="#AE3184"/>
<path d="M4.37198 6.48853H0V10.9856H3.84852C3.87131 9.47291 4.04668 7.96629 4.37198 6.48853Z" fill="#724992"/>
<path d="M5.21263 15.277C5.57804 15.2928 5.93012 15.4183 6.22268 15.6371C6.51502 15.8576 6.73143 16.1631 6.84199 16.5115H10.1007V12.0144H4.88086C4.9103 13.1086 5.02119 14.1992 5.21263 15.277Z" fill="#AE3184"/>
<path d="M4.19503 15.5636C3.98489 14.3939 3.86657 13.2097 3.84115 12.0217H0V16.5189H3.46515C3.59051 16.126 3.84839 15.7885 4.19503 15.5636Z" fill="#724992"/>
<path d="M15.1657 12.0144H11.1328V16.5115H15.7997C16.0635 15.4131 16.2361 14.2948 16.3158 13.1681C16.0501 13.079 15.8097 12.9277 15.6148 12.727C15.4198 12.5263 15.2759 12.2819 15.1951 12.0144H15.1657Z" fill="#E44B2A"/>
<path d="M7.79289 0.0073274H2.32975C2.02458 0.00682279 1.7223 0.0662662 1.4402 0.182265C1.15809 0.298264 0.901692 0.468543 0.685651 0.683364C0.250367 1.11885 0.00413842 1.70732 0 2.32202V5.45972H4.63739C5.13231 3.37408 6.2293 1.47858 7.79289 0.0073274Z" fill="#724992"/>
<path d="M6.10449 18.5396C7.03345 20.9278 8.39739 22.6032 9.93827 22.9926H10.1005V17.5402H6.85649C6.73353 17.9521 6.4668 18.3066 6.10449 18.5396Z" fill="#AE3184"/>
<path d="M18.557 10.9856H22.0074C21.9787 9.44376 21.669 7.91994 21.0932 6.48853H16.8613C17.1 7.5777 17.2577 8.68294 17.3332 9.79523C17.6106 9.87798 17.8636 10.0268 18.0704 10.2288C18.293 10.437 18.4602 10.6971 18.557 10.9856Z" fill="#F8A131"/>
<path d="M10.1008 4.19582V0.00732422H9.93865C8.19133 0.448219 6.65781 2.53512 5.75098 5.45237H8.86962C8.94375 5.15338 9.09643 4.87946 9.31197 4.65876C9.53168 4.44078 9.80301 4.28156 10.1008 4.19582Z" fill="#AE3184"/>
<path d="M20.592 5.45239C19.8914 4.22905 18.9462 3.16214 17.815 2.31779C16.6837 1.47343 15.3906 0.869619 14.0156 0.543762C15.2508 1.95518 16.1348 3.63685 16.5961 5.45239H20.592Z" fill="#F8A131"/>
<path d="M11.1328 17.5402V22.9485L11.6047 22.8898C13.2266 22.2946 14.6275 20.2958 15.4827 17.5402H11.1328Z" fill="#E44B2A"/>
<path d="M16.2937 9.82462C16.208 8.70054 16.033 7.58501 15.7702 6.48853H12.2535C12.1645 6.74305 12.0153 6.97243 11.8185 7.15721C11.625 7.34722 11.3905 7.49051 11.1328 7.57606V10.9856H15.1657C15.2478 10.7168 15.3929 10.4713 15.589 10.2694C15.7852 10.0675 16.0267 9.91506 16.2937 9.82462Z" fill="#E44B2A"/>
<path d="M14.0156 22.4562C15.3899 22.1286 16.682 21.5232 17.812 20.6776C18.9419 19.832 19.8856 18.7642 20.5847 17.5402H16.5961C16.1377 19.3591 15.2534 21.0438 14.0156 22.4562Z" fill="#F8A131"/>
<path d="M3.45777 17.5402H0V20.6779C0.00386655 21.2926 0.250562 21.881 0.686641 22.3156C1.12272 22.7503 1.71305 22.9961 2.32975 23H7.79289C6.54436 21.8549 5.60608 20.4142 5.06501 18.8115C4.697 18.7903 4.34441 18.6569 4.05496 18.4294C3.76796 18.2021 3.55919 17.8913 3.45777 17.5402Z" fill="#724992"/>
<path d="M17.3332 13.2342C17.2571 14.3464 17.0994 15.4516 16.8613 16.5409H21.0859C21.6598 15.1086 21.9719 13.5856 22.0074 12.0438H18.557C18.4661 12.3235 18.3064 12.5761 18.0926 12.7786C17.8815 12.9912 17.6205 13.1478 17.3332 13.2342Z" fill="#F8A131"/>
</g>
<defs>
<clipPath id="clip0_1023_297">
<rect width="22" height="23" fill="white"/>
</clipPath>
</defs>
</svg>
