<svg width="25" height="24" viewBox="0 0 25 24" fill="none" xmlns="http://www.w3.org/2000/svg">
<g clip-path="url(#clip0_1023_260)">
<path d="M11.0396 21.34C10.0396 21.34 9.17957 21.34 8.30957 21.21C8.46957 21.37 8.62956 21.54 8.79956 21.69C9.90474 22.743 11.2667 23.4877 12.7496 23.85C12.4196 23.05 12.1096 22.19 11.8096 21.32L11.0396 21.34Z" fill="#114C00"/>
<path d="M17.6497 15.09C15.8779 15.6095 14.0645 15.9742 12.2297 16.18L11.1396 16.27C11.5596 17.83 11.9797 19.27 12.3997 20.5H12.6497C14.4885 20.4083 16.3122 20.12 18.0897 19.64C18.3881 18.328 18.5324 16.9855 18.5197 15.64C18.177 15.5575 17.8712 15.3642 17.6497 15.09Z" fill="#117400"/>
<path d="M3.19016 6.51999C2.63412 6.46661 2.08268 6.37303 1.54016 6.23999C0.856739 7.44979 0.389725 8.76959 0.160156 10.14C1.03785 10.5959 1.99544 10.8777 2.98016 10.97C2.85111 9.48393 2.92173 7.98729 3.19016 6.51999Z" fill="#11BF51"/>
<path d="M6.87044 5.66998C6.93251 5.36334 7.07995 5.08049 7.29581 4.85402C7.51166 4.62755 7.78713 4.46669 8.09044 4.38998C8.09044 4.13998 8.09043 3.87998 8.03043 3.63998C7.95824 2.69136 7.95824 1.73861 8.03043 0.789978C7.46289 0.995521 6.91138 1.24287 6.38043 1.52998C5.31536 2.73958 4.56338 4.19205 4.19043 5.75998C5.08477 5.78876 5.98004 5.7587 6.87044 5.66998Z" fill="#11CE51"/>
<path d="M8.49995 16.4C7.68995 16.4 6.90995 16.4 6.13995 16.3C6.0016 16.6229 5.76324 16.8928 5.45996 17.07C5.99738 18.2153 6.66873 19.2928 7.45996 20.28C8.81157 20.4675 10.1756 20.551 11.54 20.53C11.07 19.1 10.65 17.66 10.3 16.34C9.69996 16.38 9.08995 16.4 8.49995 16.4Z" fill="#117400"/>
<path d="M15.2602 3.27004C16.3133 2.75616 17.3032 2.12193 18.2102 1.38004C16.4238 0.46843 14.4459 -0.00462521 12.4402 3.40873e-05H11.9902C13.2328 0.92593 14.3343 2.02744 15.2602 3.27004Z" fill="#11CE51"/>
<path d="M17.99 8.14999C19.7024 7.40121 21.2749 6.36644 22.64 5.09C21.6684 3.76962 20.4449 2.65483 19.04 1.81C18.0512 2.65463 16.9591 3.37036 15.79 3.94C16.688 5.25096 17.4266 6.66425 17.99 8.14999Z" fill="#11BF51"/>
<path d="M18.2197 8.92003C18.4197 9.52003 18.5997 10.13 18.7497 10.76C18.8997 11.39 18.9997 11.87 19.0897 12.43C19.3513 12.4482 19.6047 12.5284 19.829 12.6641C20.0533 12.7997 20.2421 12.9869 20.3797 13.21C20.8516 13.0009 21.3122 12.7672 21.7597 12.51C22.9303 11.8946 23.9353 11.0062 24.6897 9.92003C24.4188 8.42742 23.8619 7.00126 23.0497 5.72003C21.6317 7.05138 19.9986 8.13331 18.2197 8.92003Z" fill="#11A151"/>
<path d="M8.8603 3.59L8.92029 4.37C9.14218 4.42074 9.35146 4.51605 9.53539 4.65013C9.71933 4.78421 9.87409 4.95428 9.9903 5.14999L10.7403 4.97C12.0314 4.62674 13.2922 4.17858 14.5103 3.63C13.4669 2.24288 12.1833 1.05406 10.7203 0.119995C10.1057 0.205181 9.49764 0.332146 8.9003 0.5C8.78799 1.52634 8.77458 2.56109 8.8603 3.59Z" fill="#11CE51"/>
<path d="M4.51001 2.78003C3.53997 3.55772 2.69364 4.47821 2 5.51003C2.45274 5.60126 2.91008 5.66802 3.37001 5.71002C3.61898 4.68731 4.00231 3.70208 4.51001 2.78003Z" fill="#11CE51"/>
<path d="M7.04968 21.05C5.72838 20.8523 4.43134 20.5172 3.17969 20.05C5.15118 22.1561 7.78333 23.5251 10.6397 23.93C9.76467 23.4846 8.95399 22.9228 8.22969 22.26C7.81185 21.8813 7.41776 21.4772 7.04968 21.05Z" fill="#114C00"/>
<path d="M3.03955 15.01C3.16587 14.7509 3.35493 14.5275 3.58955 14.36L3.43954 13.81C3.27923 13.1507 3.15571 12.483 3.06955 11.81C2.03085 11.7121 1.01639 11.4382 0.069548 11C0.069548 11.35 0.0195449 11.7 0.0195449 12.06C0.0185183 12.7303 0.0753946 13.3995 0.189543 14.06C0.801427 14.3612 1.43688 14.6121 2.08955 14.81L3.03955 15.01Z" fill="#11A151"/>
<path d="M9.28027 7.41998C9.43027 8.41998 9.62028 9.54998 9.85028 10.67C10.7703 10.51 11.7203 10.31 12.6803 10.05C14.2174 9.64382 15.7216 9.12234 17.1803 8.48999C16.628 7.0093 15.8958 5.60208 15.0003 4.29999C13.71 4.89207 12.3719 5.37379 11.0003 5.73999L10.2603 5.91998C10.2626 6.23868 10.1709 6.55098 9.99654 6.81779C9.82222 7.08461 9.57306 7.29408 9.28027 7.41998Z" fill="#11BF51"/>
<path d="M12.7002 21.3C13.0502 22.3 13.3902 23.21 13.7002 24H13.8002C14.7822 23.9017 15.749 23.6869 16.6802 23.36C17.1774 22.4704 17.5732 21.5279 17.8602 20.55C16.1666 20.9566 14.4394 21.2076 12.7002 21.3Z" fill="#114C00"/>
<path d="M4.65965 17.31H4.57965C4.1614 17.3144 3.75672 17.1617 3.44563 16.8821C3.13455 16.6025 2.93971 16.2164 2.89966 15.8C2.53966 15.71 2.16965 15.62 1.82965 15.52C1.34059 15.3729 0.859877 15.1993 0.389648 15C0.715553 16.2881 1.25649 17.5119 1.98965 18.62C3.32674 19.3132 4.75885 19.8052 6.23965 20.08C5.62825 19.2077 5.0993 18.2803 4.65965 17.31Z" fill="#117400"/>
<path d="M17.8398 22.92C19.9041 21.9602 21.6624 20.4477 22.9198 18.55C21.6245 19.3329 20.2283 19.9352 18.7698 20.34C18.54 21.2268 18.2287 22.0905 17.8398 22.92Z" fill="#114C00"/>
<path d="M9.99023 11.47C10.1802 12.38 10.3902 13.3 10.6102 14.24C10.7202 14.67 10.8202 15.08 10.9302 15.49C11.3302 15.49 11.7202 15.43 12.1202 15.38C13.8614 15.1885 15.5839 14.854 17.2702 14.38C17.1999 14.0091 17.2613 13.6252 17.4439 13.2947C17.6265 12.9642 17.9187 12.7079 18.2702 12.57C18.1902 12.04 18.0802 11.5 17.9502 10.97C17.8202 10.44 17.6502 9.83003 17.4702 9.28003C15.9913 9.91581 14.4671 10.4406 12.9102 10.85C11.9102 11.09 10.9902 11.3 9.99023 11.47Z" fill="#11A151"/>
<path d="M6.24992 15.5C7.52865 15.5806 8.8112 15.5806 10.0899 15.5L9.80994 14.38C9.58327 13.4333 9.37326 12.4933 9.17993 11.56C7.87964 11.7637 6.56603 11.8706 5.24992 11.88C4.78992 11.88 4.33992 11.88 3.91992 11.83C3.99992 12.41 4.10992 13 4.24992 13.59L4.36993 14.03H4.57993C4.99088 14.0248 5.38914 14.1723 5.69763 14.4438C6.00613 14.7154 6.20292 15.0917 6.24992 15.5Z" fill="#11A151"/>
<path d="M24.8405 11.14C24.0732 11.9642 23.1784 12.6597 22.1905 13.2C21.7005 13.48 21.1905 13.74 20.6205 13.99C20.6205 13.99 20.6205 13.99 20.6205 14.05C20.6142 14.4185 20.4848 14.7743 20.2528 15.0606C20.0208 15.347 19.6996 15.5474 19.3405 15.63C19.3449 16.8822 19.2243 18.1318 18.9805 19.36C20.8046 18.8545 22.4903 17.9415 23.9105 16.69C24.56 15.2253 24.9004 13.6423 24.9105 12.04C24.9026 11.739 24.8792 11.4386 24.8405 11.14Z" fill="#117400"/>
<path d="M8.99014 10.81C8.78014 9.69998 8.59014 8.61998 8.44014 7.58998C8.10354 7.57848 7.77806 7.46667 7.50545 7.26889C7.23284 7.07111 7.02553 6.79639 6.91014 6.47998C6.18014 6.54998 5.48015 6.59998 4.81015 6.59998H3.98015C3.70802 8.07712 3.64406 9.5851 3.79015 11.08C5.52815 11.1763 7.27147 11.0858 8.99014 10.81Z" fill="#11BF51"/>
</g>
<defs>
<clipPath id="clip0_1023_260">
<rect width="25" height="24" fill="white"/>
</clipPath>
</defs>
</svg>
