<svg width="22" height="24" viewBox="0 0 22 24" fill="none" xmlns="http://www.w3.org/2000/svg">
<g clip-path="url(#clip0_1023_231)">
<path d="M15.1401 10.57L15.1201 13.67L21.9401 9.72002L22.1701 9.58002V6.46002L15.1401 10.57Z" fill="#1E09F7"/>
<path d="M11.1504 20.2L18.2604 16.05C18.4161 15.3626 18.7918 14.7447 19.3304 14.29C19.9004 13.89 20.3304 14.11 20.4704 14.76L21.9904 13.87L22.2204 13.73V10.65L11.1504 17.11V20.2Z" fill="#1E09F7"/>
<path d="M19.2804 17.4C18.8004 17.75 18.3804 17.64 18.2104 17.18L11.1504 21.33V23.96L21.9904 17.64L22.2204 17.5V14.81L20.3104 15.94C20.1233 16.52 19.764 17.0292 19.2804 17.4Z" fill="#1E09F7"/>
<path d="M11.0996 16.01L14.1896 14.21V11.13L11.0996 12.93V16.01Z" fill="#1E09F7"/>
<path d="M7.37988 19.2V21.83L11.0999 24V21.37L7.37988 19.2Z" fill="#61C7FF"/>
<path d="M3.14981 17.56C2.80284 17.2675 2.52118 16.9054 2.32307 16.4971C2.12497 16.0889 2.01484 15.6435 1.99982 15.19C1.99982 14.72 2.15981 14.41 2.40981 14.31V7.85998L0.0498047 6.47998V17.54L6.45981 21.28V18.65L4.22981 17.35C4.03981 17.8 3.62981 17.9 3.14981 17.56Z" fill="#61C7FF"/>
<path d="M11.1502 12.93L3.41016 8.41998V14.63C3.849 15.0797 4.15076 15.6451 4.28017 16.26L6.50017 17.55V13.33L11.1602 16.05V12.93H11.1502Z" fill="#61C7FF"/>
<path d="M11.0999 17.11L7.37988 14.93V18.1L11.0999 20.27V20.19V17.11Z" fill="#61C7FF"/>
<path d="M18.4398 4.33002L12.0098 8.07001C12.1165 8.1683 12.1873 8.29946 12.2108 8.44263C12.2344 8.58579 12.2094 8.73272 12.1398 8.86002L15.1398 10.61L22.1398 6.50002L18.4398 4.33002Z" fill="#2E5BF1"/>
<path d="M9.08034 9.27C8.92384 9.21517 8.78827 9.11306 8.69234 8.97781C8.59641 8.84255 8.54488 8.68082 8.54488 8.515C8.54488 8.34918 8.59641 8.18745 8.69234 8.05219C8.78827 7.91693 8.92384 7.81483 9.08034 7.76C9.6728 7.45917 10.3506 7.37091 11.0004 7.51L17.4303 3.7L14.4303 1.94L3.36035 8.4L11.1003 12.92L14.2003 11.12L11.3203 9.44C10.9547 9.56375 10.5679 9.61248 10.183 9.58327C9.79813 9.55406 9.42309 9.44752 9.08034 9.27Z" fill="#2E5BF1"/>
<path d="M2.4 7.85L13.43 1.37L11.09 0L0 6.46L0.03 6.48V6.46L2.4 7.85Z" fill="#2E5BF1"/>
<path d="M11.0896 12.92L3.34961 8.40002V8.41002L11.0896 12.93V12.92Z" fill="#2E5BF1"/>
<path d="M2.40027 7.85002L0.0302734 6.46002V6.48002L2.39027 7.85002H2.40027Z" fill="#2E5BF1"/>
<path d="M3.34008 8.39001L3.33008 8.40001L3.35008 8.41001V8.40001L3.34008 8.39001Z" fill="#2E5BF1"/>
</g>
<defs>
<clipPath id="clip0_1023_231">
<rect width="22" height="24" fill="white"/>
</clipPath>
</defs>
</svg>
