<svg width="601" height="204" viewBox="0 0 601 204" fill="none" xmlns="http://www.w3.org/2000/svg">
<g clip-path="url(#clip0_3_3)">
<path d="M181.496 52.2346C178.635 47.2869 174.523 43.1773 169.572 40.3171C164.621 37.457 159.005 35.9467 153.287 35.9374V35.9374C147.58 35.9435 141.975 37.4443 137.03 40.2902L76.8507 74.9574C71.8942 77.8109 67.7773 81.9187 64.9144 86.8673C62.0514 91.816 60.5433 97.4309 60.542 103.147V142.193L43.248 152.168V84.803C43.2512 81.3617 44.164 77.9822 45.8942 75.0067C47.6243 72.0312 50.1103 69.5651 53.1006 67.8581L125.129 26.2731L123.21 21.0912C121.544 16.6744 118.938 12.6721 115.571 9.36148C112.205 6.05089 108.158 3.51112 103.712 1.91803C99.2484 0.313134 94.4874 -0.297037 89.7628 0.130263C85.0512 0.560424 80.4879 2.00093 76.384 4.35354L16.3087 38.9948C11.3523 41.8483 7.2354 45.9561 4.37243 50.9047C1.50945 55.8534 0.00138754 61.4683 0 67.1845L0 135.664C0.00685492 144.295 3.43924 152.571 9.54425 158.676C15.6493 164.782 23.9284 168.218 32.5656 168.232V168.232C38.2722 168.226 43.8774 166.725 48.8225 163.879L108.898 129.212C113.823 126.377 117.918 122.301 120.775 117.392C123.632 112.482 125.151 106.909 125.181 101.23V62.0025L142.604 52.0014V118.667C142.603 122.109 141.694 125.49 139.969 128.469C138.244 131.449 135.763 133.921 132.777 135.638L60.5938 177.249L62.331 182.431C64.5418 188.84 68.7019 194.398 74.2294 198.328C79.757 202.258 86.3755 204.364 93.1594 204.35C94.0928 204.35 95.0262 204.35 95.9337 204.35C100.723 203.926 105.36 202.458 109.52 200.049L169.492 165.175C174.436 162.316 178.542 158.21 181.4 153.268C184.257 148.325 185.766 142.719 185.774 137.011V68.5059C185.795 62.8018 184.32 57.1917 181.496 52.2346V52.2346ZM34.7436 68.6354C31.8844 73.583 30.3735 79.1934 30.3617 84.9067V155.148C25.5739 154.601 21.1549 152.313 17.9465 148.719C14.7381 145.126 12.9646 140.479 12.964 135.664V67.1845C12.9732 63.7439 13.8855 60.366 15.6099 57.388C17.3343 54.41 19.8103 51.9362 22.7907 50.2136L82.9697 15.5465C85.4402 14.1142 88.1904 13.2305 91.0333 12.9555C91.621 12.9555 92.2174 12.9555 92.8223 12.9555C97.9718 12.9785 102.91 15.0044 106.59 18.6039C107.319 19.3323 107.995 20.1115 108.613 20.9357L46.6705 56.717C41.6818 59.5553 37.5385 63.6688 34.6658 68.6354H34.7436ZM112.242 101.204C112.236 104.604 111.342 107.944 109.65 110.894C107.939 113.855 105.469 116.306 102.493 117.993L73.506 134.731V103.147C73.4913 99.7018 74.3936 96.3145 76.1204 93.3324C77.8471 90.3503 80.3362 87.8805 83.3327 86.1763L112.242 69.4904V101.204ZM172.81 136.985C172.809 140.427 171.9 143.808 170.175 146.788C168.45 149.767 165.969 152.239 162.984 153.956L102.986 188.597C100.488 190.051 97.6988 190.935 94.8188 191.188C91.9243 191.425 89.013 191.027 86.2885 190.022C83.5773 189.02 81.1238 187.427 79.1064 185.358C78.3135 184.56 77.5933 183.693 76.9544 182.767L139.182 146.857C144.149 144.015 148.279 139.916 151.156 134.971C154.032 130.027 155.554 124.412 155.568 118.693V49.0477C158.227 49.3823 160.787 50.2645 163.087 51.6387C166.07 53.3565 168.547 55.8299 170.267 58.8095C171.988 61.789 172.892 65.1694 172.888 68.6095L172.81 136.985Z" fill="white"/>
<rect x="266" y="20" width="335" height="164" rx="30" fill="white"/>
<path d="M358.316 126C373.03 126 381.943 116.898 381.943 101.807C381.943 86.7636 373.03 77.7091 358.457 77.7091H341.197V126H358.316ZM351.407 117.252V86.4571H357.915C366.97 86.4571 371.756 91.0787 371.756 101.807C371.756 112.583 366.97 117.252 357.891 117.252H351.407ZM433.882 101.855C433.882 86.0562 424.073 77.0489 411.27 77.0489C398.395 77.0489 388.657 86.0562 388.657 101.855C388.657 117.582 398.395 126.66 411.27 126.66C424.073 126.66 433.882 117.653 433.882 101.855ZM423.531 101.855C423.531 112.088 418.674 117.629 411.27 117.629C403.842 117.629 399.008 112.088 399.008 101.855C399.008 91.621 403.842 86.0798 411.27 86.0798C418.674 86.0798 423.531 91.621 423.531 101.855ZM484.054 94.6156C482.71 83.4625 474.268 77.0489 463.092 77.0489C450.335 77.0489 440.597 86.0562 440.597 101.855C440.597 117.606 450.17 126.66 463.092 126.66C475.471 126.66 482.946 118.431 484.054 109.541L473.726 109.494C472.759 114.658 468.704 117.629 463.257 117.629C455.923 117.629 450.948 112.182 450.948 101.855C450.948 91.8097 455.853 86.0798 463.327 86.0798C468.916 86.0798 472.948 89.3102 473.726 94.6156H484.054ZM517.572 91.5974H527.358C527.216 82.9909 520.142 77.0489 509.39 77.0489C498.803 77.0489 491.045 82.8966 491.092 91.6682C491.069 98.7892 496.091 102.868 504.25 104.826L509.508 106.146C514.766 107.419 517.69 108.928 517.714 112.182C517.69 115.719 514.342 118.124 509.154 118.124C503.849 118.124 500.029 115.672 499.699 110.838H489.819C490.078 121.284 497.553 126.684 509.272 126.684C521.062 126.684 527.994 121.048 528.018 112.206C527.994 104.165 521.934 99.8974 513.54 98.0111L509.201 96.9736C505.004 96.0068 501.491 94.4506 501.562 90.9844C501.562 87.8719 504.32 85.5847 509.319 85.5847C514.2 85.5847 517.195 87.8011 517.572 91.5974Z" fill="black"/>
</g>
<defs>
<clipPath id="clip0_3_3">
<rect width="601" height="204" fill="white"/>
</clipPath>
</defs>
</svg>
