<svg width="240" height="38" viewBox="0 0 240 38" fill="none" xmlns="http://www.w3.org/2000/svg">
<path d="M47.253 27.5139C48.7864 28.5894 50.9255 29.1348 53.6109 29.1348C56.188 29.1348 58.1776 28.6344 59.5383 27.614C60.8991 26.5934 61.5511 25.2353 61.5511 23.4194C61.5511 22.0212 61.1207 20.8931 60.2625 20.0702C59.4043 19.2473 58.0127 18.642 56.1391 18.3193L51.8069 17.5164C50.6961 17.3138 49.9075 17.0162 49.3972 16.6159C49.1316 16.4052 48.9204 16.1372 48.7803 15.8332C48.6403 15.5292 48.5753 15.1977 48.5906 14.8651C48.5755 14.4297 48.6818 13.9985 48.8981 13.6168C49.1145 13.2352 49.4329 12.9171 49.8199 12.6965C50.593 12.2262 51.6909 11.9861 53.0774 11.9861C54.5773 11.9861 55.7628 12.2588 56.6055 12.7965C57.4357 13.3389 58.0132 14.1761 58.2137 15.1277H61.3063C61.2182 14.3435 60.9634 13.5856 60.5579 12.9018C60.1524 12.2181 59.6052 11.6236 58.9507 11.1557C57.5359 10.1552 55.6004 9.63245 53.1727 9.63245C50.8404 9.63245 48.9797 10.1327 47.6447 11.1332C46.3098 12.1337 45.6655 13.4268 45.6655 15.1352C45.6655 17.7565 47.4025 19.3448 50.9719 19.9877L55.3015 20.758C56.4818 20.9606 57.3065 21.2783 57.8219 21.731C58.0929 21.9837 58.3043 22.2901 58.4418 22.6295C58.5792 22.9687 58.6394 23.3329 58.6183 23.697C58.6183 25.7355 56.9741 26.7685 53.7217 26.7685C51.9177 26.7685 50.526 26.4759 49.5853 25.8956C49.1313 25.6134 48.7465 25.238 48.4579 24.7959C48.1694 24.3539 47.9842 23.8558 47.9153 23.3368H44.7764C44.8534 24.1654 45.1147 24.968 45.5423 25.6892C45.9699 26.4104 46.5535 27.0329 47.253 27.5139Z" fill="white"/>
<path d="M79.9911 10.8131C78.5273 10.0252 76.7413 9.62503 74.6822 9.62503C72.8569 9.58548 71.0515 9.99966 69.4377 10.8282C67.9745 11.6065 66.7757 12.7804 65.9868 14.2073C65.175 15.6606 64.7627 17.4015 64.7627 19.3799C64.7627 21.3584 65.175 23.0993 65.9868 24.5525C66.7757 25.9794 67.9745 27.1533 69.4377 27.9318C71.0514 28.7605 72.8569 29.1747 74.6822 29.1348C76.7207 29.1348 78.5015 28.7346 79.9757 27.9468C81.4323 27.1728 82.6204 25.9979 83.3904 24.57C84.1919 23.1068 84.5991 21.3609 84.5991 19.3799C84.5991 17.3989 84.1919 15.628 83.3904 14.1748C82.6205 12.7557 81.4386 11.5869 79.9911 10.8131ZM79.6458 24.6C78.4654 25.8506 76.7955 26.4935 74.6822 26.4935C72.5689 26.4935 70.9247 25.8557 69.734 24.6C68.5434 23.3444 67.9455 21.5936 67.9455 19.3799C67.9455 17.1664 68.546 15.4105 69.7315 14.1598C70.9169 12.9092 72.587 12.2663 74.6796 12.2663C76.7723 12.2663 78.4629 12.8992 79.6432 14.1448C80.8236 15.3904 81.4111 17.1463 81.4111 19.3799C81.4111 21.6135 80.8313 23.3494 79.6458 24.6Z" fill="white"/>
<path d="M105.377 28.7497H108.827V25.5306H106.91V10.0228H103.725V20.9257C103.725 22.6591 103.181 24.0299 102.106 25.0053C101.032 25.9808 99.5161 26.4686 97.5859 26.4686C95.7612 26.4686 94.3438 25.9958 93.3748 25.0654C92.4058 24.1349 91.9135 22.7442 91.9135 20.9508V10.0153H88.7256V21.7212C88.7256 23.9723 89.4317 25.7832 90.8285 27.1064C92.2254 28.4296 94.1789 29.1074 96.6607 29.1074C98.0818 29.1417 99.4922 28.8602 100.784 28.2845C101.902 27.7557 102.846 26.9356 103.511 25.9158L103.588 25.8008H105.374V28.7497H105.377Z" fill="white"/>
<path d="M124.068 12.4265H125.627V9.85016H124.267C122.885 9.81849 121.52 10.1495 120.316 10.8082C119.232 11.4188 118.373 12.3444 117.86 13.4545L117.79 13.602H115.986V10.0153H112.53V13.2294H114.445V28.7497H117.597V18.9623C117.597 16.9837 118.167 15.383 119.285 14.2098C120.403 13.0368 122.019 12.4265 124.068 12.4265Z" fill="white"/>
<path d="M142.846 11.3234C141.282 10.1954 139.292 9.62509 136.937 9.62509C135.14 9.58502 133.364 9.99965 131.782 10.8281C130.346 11.6132 129.176 12.7863 128.414 14.2049C127.618 15.6581 127.221 17.399 127.221 19.38C127.221 21.361 127.628 23.0993 128.429 24.5526C129.199 25.9722 130.375 27.1457 131.816 27.9318C133.386 28.7582 135.151 29.1729 136.937 29.1349C139.377 29.1349 141.416 28.537 142.99 27.359C144.493 26.2384 145.503 24.6076 146 22.5491H142.784C142.011 25.1654 140.042 26.4935 136.937 26.4935C134.908 26.4935 133.292 25.8557 132.135 24.5976C130.978 23.3395 130.401 21.5961 130.401 19.38C130.401 17.1638 130.986 15.378 132.135 14.1449C133.285 12.9117 134.908 12.2664 136.937 12.2664C138.457 12.2664 139.712 12.5791 140.663 13.1918C141.626 13.8414 142.327 14.7953 142.645 15.8907H145.861C145.343 13.9273 144.33 12.3915 142.846 11.3234Z" fill="white"/>
<path d="M167.939 19.7402V18.5471C167.939 16.7162 167.561 15.1178 166.816 13.7947C166.091 12.4961 164.996 11.4279 163.661 10.7181C162.167 9.96113 160.499 9.58503 158.814 9.62509C157.028 9.58694 155.262 9.99524 153.685 10.8107C152.248 11.5874 151.073 12.7504 150.301 14.1598C149.5 15.6006 149.093 17.3364 149.093 19.315C149.051 21.1206 149.466 22.9085 150.301 24.5225C151.07 25.9604 152.259 27.1463 153.719 27.9317C155.193 28.7296 156.963 29.1349 158.979 29.1349C161.27 29.1349 163.215 28.5996 164.762 27.544C166.223 26.5426 167.265 25.0658 167.7 23.382H164.45C164.104 24.3767 163.408 25.221 162.484 25.7657C161.409 26.3664 160.185 26.6668 158.945 26.6336C156.945 26.6336 155.322 26.0433 154.121 24.8828C152.92 23.7222 152.26 22.0864 152.147 20.0228L152.131 19.7726H167.939V19.7402ZM152.283 17.3139C152.6 15.6806 153.342 14.39 154.487 13.4795C155.631 12.5691 157.064 12.1063 158.78 12.1063C160.497 12.1063 161.929 12.5715 162.999 13.4845C164.069 14.3975 164.702 15.6931 164.885 17.3339L164.916 17.6091H152.219L152.283 17.3139Z" fill="white"/>
<path d="M14.4233 37.5816C15.2539 37.8488 16.1335 37.9425 17.0041 37.8563C17.8747 37.77 18.7166 37.506 19.4745 37.0813L29.546 31.441C30.8767 30.6934 31.9817 29.6197 32.7506 28.3274C33.5194 27.0351 33.9252 25.5696 33.9272 24.0773V12.9642C33.9336 12.0839 33.6982 11.2178 33.2452 10.455C32.7923 9.69231 32.1381 9.06048 31.35 8.62454C30.5681 8.18077 29.6787 7.94689 28.7729 7.94689C27.8671 7.94689 26.9776 8.18077 26.1957 8.62454L14.3408 15.2754C13.7925 15.5826 13.3371 16.0245 13.0205 16.5567C12.7038 17.0888 12.537 17.6924 12.5368 18.3069V25.6506L12.4079 25.7231L9.18649 27.5265L8.79991 27.7442V16.4885C8.80131 15.7861 8.99242 15.0964 9.35418 14.4881C9.71594 13.8798 10.2357 13.3742 10.8616 13.0218L23.7345 5.80813C23.9574 5.68197 24.1252 5.4814 24.2068 5.24388C24.2884 5.00637 24.2781 4.74816 24.1778 4.51748C23.8354 3.7352 23.3257 3.0324 22.6825 2.45561C22.0393 1.87881 21.2772 1.44115 20.4467 1.17159C19.6161 0.902032 18.7361 0.80672 17.8648 0.89196C16.9934 0.977196 16.1507 1.24105 15.3923 1.66605L5.32075 7.31889C3.99012 8.06654 2.8851 9.14021 2.11623 10.4325C1.34737 11.7247 0.941622 13.1904 0.939579 14.6826V25.7956C0.933203 26.676 1.1686 27.5421 1.62156 28.3048C2.07452 29.0675 2.72868 29.6994 3.51674 30.1353C4.29864 30.5791 5.18812 30.813 6.0939 30.813C6.99968 30.813 7.88915 30.5791 8.67105 30.1353L20.526 23.492C21.0743 23.1847 21.5297 22.7429 21.8463 22.2108C22.163 21.6786 22.3298 21.075 22.33 20.4604V13.1093L22.4589 13.0368L25.6803 11.2334L26.0669 11.0158V22.2714C26.0655 22.9737 25.8744 23.6634 25.5126 24.2717C25.1508 24.88 24.6311 25.3856 24.0051 25.7382L11.1425 32.9367C10.9159 33.0633 10.7449 33.266 10.6619 33.5065C10.5788 33.7471 10.5893 34.0089 10.6915 34.2424C11.0348 35.0235 11.545 35.725 12.1882 36.3006C12.8315 36.8762 13.5933 37.3129 14.4233 37.5816ZM6.73819 16.496V28.7521L6.51655 28.7821C6.37654 28.8012 6.23528 28.8105 6.0939 28.8096C5.54886 28.8027 5.01542 28.656 4.5476 28.3844C4.07542 28.1234 3.68333 27.7451 3.41159 27.2885C3.13984 26.8317 2.99824 26.313 3.00131 25.7856V14.6826C3.00298 13.5412 3.31329 12.4203 3.90121 11.4318C4.48914 10.4433 5.33409 9.62196 6.35161 9.04975L16.4231 3.40693C17.2682 2.93323 18.2589 2.76577 19.2192 2.9343C20.1795 3.10285 21.0471 3.59646 21.6677 4.32738L21.861 4.55499L21.6032 4.70257L9.83078 11.2959C8.89171 11.8244 8.11192 12.5827 7.56925 13.4952C7.02658 14.4077 6.74002 15.4424 6.73819 16.496ZM20.2683 14.6976V20.4505C20.268 20.7137 20.1964 20.9722 20.0607 21.2C19.925 21.4278 19.73 21.617 19.4951 21.7486L14.9851 24.2749L14.5985 24.4925V18.3069C14.5988 18.0437 14.6704 17.7852 14.8061 17.5574C14.9418 17.3295 15.1368 17.1403 15.3717 17.0088L19.8817 14.4825L20.2683 14.2649V14.6976ZM13.2687 34.0548L25.036 27.464C25.9751 26.9354 26.7549 26.1771 27.2975 25.2646C27.8402 24.3521 28.1268 23.3175 28.1286 22.2639V10.0077L28.3502 9.9777C28.4902 9.95851 28.6315 9.94935 28.7729 9.95022C29.3178 9.95792 29.8511 10.1046 30.3192 10.3754C30.7914 10.6365 31.1835 11.0147 31.4552 11.4715C31.7269 11.9282 31.8686 12.4468 31.8655 12.9742V24.0873C31.8638 25.2287 31.5535 26.3496 30.9656 27.3381C30.3776 28.3265 29.5327 29.1479 28.5152 29.7202L18.4436 35.363C17.5986 35.8366 16.6079 36.0041 15.6476 35.8355C14.6873 35.6671 13.8197 35.1735 13.1991 34.4425L13.0058 34.2123L13.2687 34.0548Z" fill="white"/>
<path d="M234.328 7.84149H194.632C192.241 7.84149 190.302 9.73059 190.302 12.0609V26.6882C190.302 29.0186 192.241 30.9077 194.632 30.9077H234.328C236.72 30.9077 238.658 29.0186 238.658 26.6882V12.0609C238.658 9.73059 236.72 7.84149 234.328 7.84149Z" fill="white"/>
<path d="M203.627 22.7501C205.751 22.7501 207.037 21.4699 207.037 19.3473C207.037 17.2315 205.751 15.958 203.648 15.958H201.156V22.7501H203.627ZM202.63 21.5197V17.1885H203.57C204.876 17.1885 205.568 17.8384 205.568 19.3473C205.568 20.863 204.876 21.5197 203.565 21.5197H202.63ZM214.534 19.3542C214.534 17.132 213.118 15.8652 211.271 15.8652C209.413 15.8652 208.007 17.132 208.007 19.3542C208.007 21.5661 209.413 22.8429 211.271 22.8429C213.118 22.8429 214.534 21.5761 214.534 19.3542ZM213.04 19.3542C213.04 20.7934 212.339 21.5727 211.271 21.5727C210.198 21.5727 209.501 20.7934 209.501 19.3542C209.501 17.9147 210.198 17.1353 211.271 17.1353C212.339 17.1353 213.04 17.9147 213.04 19.3542ZM221.776 18.336C221.583 16.7672 220.365 15.8652 218.751 15.8652C216.91 15.8652 215.504 17.132 215.504 19.3542C215.504 21.5695 216.886 22.8429 218.751 22.8429C220.538 22.8429 221.618 21.6855 221.776 20.4351L220.287 20.4285C220.147 21.1549 219.561 21.5727 218.775 21.5727C217.716 21.5727 216.998 20.8066 216.998 19.3542C216.998 17.9412 217.706 17.1353 218.786 17.1353C219.592 17.1353 220.174 17.5897 220.287 18.336H221.776ZM226.615 17.9114H228.028C228.008 16.701 226.986 15.8652 225.434 15.8652C223.906 15.8652 222.787 16.6877 222.793 17.9214C222.79 18.9229 223.514 19.4966 224.692 19.772L225.452 19.9577C226.211 20.1367 226.632 20.3489 226.635 20.8066C226.632 21.304 226.149 21.6423 225.4 21.6423C224.635 21.6423 224.083 21.2974 224.035 20.6175H222.609C222.647 22.0867 223.725 22.8463 225.417 22.8463C227.119 22.8463 228.119 22.0535 228.123 20.8099C228.119 19.679 227.244 19.0788 226.033 18.8135L225.407 18.6675C224.801 18.5316 224.294 18.3128 224.304 17.8252C224.304 17.3874 224.702 17.0658 225.424 17.0658C226.129 17.0658 226.56 17.3775 226.615 17.9114Z" fill="black"/>
</svg>
