<svg width="240" height="38" viewBox="0 0 240 38" fill="none" xmlns="http://www.w3.org/2000/svg">
<path d="M47.253 27.3536C48.7864 28.4574 50.9255 29.0171 53.6109 29.0171C56.188 29.0171 58.1776 28.5036 59.5383 27.4563C60.8991 26.4089 61.5511 25.015 61.5511 23.1513C61.5511 21.7163 61.1207 20.5585 60.2625 19.714C59.4043 18.8694 58.0127 18.2482 56.1391 17.917L51.8069 17.093C50.6961 16.8851 49.9075 16.5796 49.3972 16.1688C49.1316 15.9525 48.9204 15.6775 48.7803 15.3655C48.6403 15.0535 48.5753 14.7133 48.5906 14.3719C48.5755 13.9251 48.6818 13.4825 48.8981 13.0908C49.1145 12.6991 49.4329 12.3727 49.8199 12.1462C50.593 11.6636 51.6909 11.4172 53.0774 11.4172C54.5773 11.4172 55.7628 11.697 56.6055 12.2489C57.4357 12.8056 58.0132 13.6648 58.2137 14.6414H61.3063C61.2182 13.8366 60.9634 13.0587 60.5579 12.357C60.1524 11.6553 59.6052 11.0451 58.9507 10.5649C57.5359 9.53808 55.6004 9.00156 53.1727 9.00156C50.8404 9.00156 48.9797 9.51497 47.6447 10.5418C46.3098 11.5686 45.6655 12.8958 45.6655 14.6491C45.6655 17.3394 47.4025 18.9695 50.9719 19.6293L55.3015 20.4199C56.4818 20.6279 57.3065 20.9539 57.8219 21.4185C58.0929 21.6778 58.3043 21.9923 58.4418 22.3406C58.5792 22.6888 58.6394 23.0626 58.6183 23.4362C58.6183 25.5284 56.9741 26.5886 53.7217 26.5886C51.9177 26.5886 50.526 26.2883 49.5853 25.6927C49.1313 25.4031 48.7465 25.0178 48.4579 24.5641C48.1694 24.1104 47.9842 23.5992 47.9153 23.0666H44.7764C44.8534 23.917 45.1147 24.7407 45.5423 25.4809C45.9699 26.221 46.5535 26.8599 47.253 27.3536Z" fill="black"/>
<path d="M79.9911 10.2133C78.5273 9.40465 76.7413 8.99392 74.6822 8.99392C72.8569 8.95332 71.0515 9.37837 69.4377 10.2287C67.9745 11.0275 66.7757 12.2323 65.9868 13.6968C65.175 15.1883 64.7627 16.975 64.7627 19.0055C64.7627 21.0361 65.175 22.8228 65.9868 24.3142C66.7757 25.7787 67.9745 26.9835 69.4377 27.7824C71.0514 28.633 72.8569 29.0581 74.6822 29.0171C76.7207 29.0171 78.5015 28.6064 79.9757 27.7978C81.4323 27.0035 82.6204 25.7977 83.3904 24.3322C84.1919 22.8305 84.5991 21.0386 84.5991 19.0055C84.5991 16.9724 84.1919 15.1549 83.3904 13.6634C82.6205 12.207 81.4386 11.0074 79.9911 10.2133ZM79.6458 24.363C78.4654 25.6465 76.7955 26.3063 74.6822 26.3063C72.5689 26.3063 70.9247 25.6517 69.734 24.363C68.5434 23.0743 67.9455 21.2774 67.9455 19.0055C67.9455 16.7337 68.546 14.9316 69.7315 13.648C70.9169 12.3645 72.587 11.7048 74.6796 11.7048C76.7723 11.7048 78.4629 12.3542 79.6432 13.6326C80.8236 14.911 81.4111 16.7131 81.4111 19.0055C81.4111 21.2979 80.8313 23.0795 79.6458 24.363Z" fill="black"/>
<path d="M105.377 28.6219H108.827V25.318H106.91V9.40215H103.725V20.592C103.725 22.371 103.181 23.7778 102.106 24.7789C101.032 25.7801 99.5161 26.2807 97.5859 26.2807C95.7612 26.2807 94.3438 25.7955 93.3748 24.8406C92.4058 23.8856 91.9135 22.4583 91.9135 20.6177V9.39445H88.7256V21.4084C88.7256 23.7187 89.4317 25.5773 90.8285 26.9353C92.2254 28.2933 94.1789 28.989 96.6607 28.989C98.0818 29.0242 99.4922 28.7353 100.784 28.1444C101.902 27.6017 102.846 26.76 103.511 25.7134L103.588 25.5953H105.374V28.6219H105.377Z" fill="black"/>
<path d="M124.068 11.8691H125.627V9.22503H124.267C122.885 9.19255 121.52 9.53223 120.316 10.2082C119.232 10.8349 118.373 11.7849 117.86 12.9242L117.79 13.0756H115.986V9.39446H112.53V12.6932H114.445V28.6219H117.597V18.5769C117.597 16.5463 118.167 14.9034 119.285 13.6994C120.403 12.4955 122.019 11.8691 124.068 11.8691Z" fill="black"/>
<path d="M142.846 10.737C141.282 9.57927 139.292 8.99398 136.937 8.99398C135.14 8.95286 133.364 9.37841 131.782 10.2287C130.346 11.0344 129.176 12.2384 128.414 13.6943C127.618 15.1858 127.221 16.9725 127.221 19.0056C127.221 21.0387 127.628 22.8228 128.429 24.3143C129.199 25.7713 130.375 26.9757 131.816 27.7824C133.386 28.6306 135.151 29.0562 136.937 29.0172C139.377 29.0172 141.416 28.4037 142.99 27.1946C144.493 26.0445 145.503 24.3708 146 22.2581H142.784C142.011 24.9432 140.042 26.3064 136.937 26.3064C134.908 26.3064 133.292 25.6517 132.135 24.3605C130.978 23.0693 130.401 21.28 130.401 19.0056C130.401 16.7312 130.986 14.8983 132.135 13.6327C133.285 12.3671 134.908 11.7048 136.937 11.7048C138.457 11.7048 139.712 12.0257 140.663 12.6546C141.626 13.3212 142.327 14.3003 142.645 15.4245H145.861C145.343 13.4094 144.33 11.8332 142.846 10.737Z" fill="black"/>
<path d="M167.939 19.3753V18.1508C167.939 16.2717 167.561 14.6313 166.816 13.2733C166.091 11.9406 164.996 10.8443 163.661 10.1158C162.167 9.33891 160.499 8.9529 158.814 8.99401C157.028 8.95486 155.262 9.37388 153.685 10.2108C152.248 11.008 151.073 12.2016 150.301 13.6481C149.5 15.1268 149.093 16.9083 149.093 18.9389C149.051 20.792 149.466 22.627 150.301 24.2835C151.07 25.7592 152.259 26.9763 153.719 27.7824C155.193 28.6013 156.963 29.0172 158.979 29.0172C161.27 29.0172 163.215 28.4679 164.762 27.3845C166.223 26.3567 167.265 24.8411 167.7 23.1129H164.45C164.104 24.1338 163.408 25.0003 162.484 25.5594C161.409 26.1759 160.185 26.4842 158.945 26.4501C156.945 26.4501 155.322 25.8443 154.121 24.6532C152.92 23.4621 152.26 21.7832 152.147 19.6653L152.131 19.4086H167.939V19.3753ZM152.283 16.8852C152.6 15.2089 153.342 13.8843 154.487 12.9499C155.631 12.0155 157.064 11.5405 158.78 11.5405C160.497 11.5405 161.929 12.018 162.999 12.955C164.069 13.892 164.702 15.2217 164.885 16.9057L164.916 17.1881H152.219L152.283 16.8852Z" fill="black"/>
<path d="M14.4233 37.6862C15.2539 37.9605 16.1335 38.0566 17.0041 37.9681C17.8747 37.8796 18.7166 37.6086 19.4745 37.1728L29.546 31.384C30.8767 30.6167 31.9817 29.5148 32.7506 28.1885C33.5194 26.8622 33.9252 25.3581 33.9272 23.8265V12.421C33.9336 11.5175 33.6982 10.6286 33.2452 9.84581C32.7923 9.06301 32.1381 8.41454 31.35 7.96713C30.5681 7.51169 29.6787 7.27165 28.7729 7.27165C27.8671 7.27165 26.9776 7.51169 26.1957 7.96713L14.3408 14.793C13.7925 15.1083 13.3371 15.5618 13.0205 16.108C12.7038 16.6541 12.537 17.2736 12.5368 17.9043V25.4412L12.4079 25.5157L9.18649 27.3665L8.79991 27.5899V16.038C8.80131 15.3172 8.99242 14.6093 9.35418 13.985C9.71594 13.3607 10.2357 12.8418 10.8616 12.4801L23.7345 5.0766C23.9574 4.94712 24.1252 4.74128 24.2068 4.49751C24.2884 4.25375 24.2781 3.98874 24.1778 3.75199C23.8354 2.94912 23.3257 2.22784 22.6825 1.63586C22.0393 1.04388 21.2772 0.594702 20.4467 0.31805C19.6161 0.0413989 18.7361 -0.0564214 17.8648 0.0310618C16.9934 0.118545 16.1507 0.389338 15.3923 0.825522L5.32075 6.62712C3.99012 7.39445 2.8851 8.49637 2.11623 9.82265C1.34737 11.1489 0.941622 12.6531 0.939579 14.1846V25.5901C0.933203 26.4936 1.1686 27.3825 1.62156 28.1653C2.07452 28.9481 2.72868 29.5966 3.51674 30.044C4.29864 30.4994 5.18812 30.7395 6.0939 30.7395C6.99968 30.7395 7.88915 30.4994 8.67105 30.044L20.526 23.2258C21.0743 22.9105 21.5297 22.457 21.8463 21.9109C22.163 21.3647 22.3298 20.7452 22.33 20.1145V12.5699L22.4589 12.4955L25.6803 10.6446L26.0669 10.4213V21.9731C26.0655 22.6939 25.8744 23.4018 25.5126 24.0261C25.1508 24.6504 24.6311 25.1693 24.0051 25.5311L11.1425 32.9191C10.9159 33.049 10.7449 33.257 10.6619 33.5039C10.5788 33.7508 10.5893 34.0195 10.6915 34.2591C11.0348 35.0608 11.545 35.7808 12.1882 36.3715C12.8315 36.9623 13.5933 37.4104 14.4233 37.6862ZM6.73819 16.0457V28.6244L6.51655 28.6552C6.37654 28.6748 6.23528 28.6843 6.0939 28.6834C5.54886 28.6763 5.01542 28.5257 4.5476 28.247C4.07542 27.9791 3.68333 27.5909 3.41159 27.1222C3.13984 26.6534 2.99824 26.1211 3.00131 25.5798V14.1846C3.00298 13.0132 3.31329 11.8628 3.90121 10.8483C4.48914 9.8338 5.33409 8.9908 6.35161 8.40353L16.4231 2.61221C17.2682 2.12605 18.2589 1.95418 19.2192 2.12715C20.1795 2.30013 21.0471 2.80673 21.6677 3.55689L21.861 3.7905L21.6032 3.94195L9.83078 10.7088C8.89171 11.2512 8.11192 12.0295 7.56925 12.966C7.02658 13.9025 6.74002 14.9644 6.73819 16.0457ZM20.2683 14.2V20.1043C20.268 20.3744 20.1964 20.6397 20.0607 20.8735C19.925 21.1073 19.73 21.3015 19.4951 21.4366L14.9851 24.0293L14.5985 24.2527V17.9043C14.5988 17.6342 14.6704 17.3689 14.8061 17.1351C14.9418 16.9012 15.1368 16.707 15.3717 16.572L19.8817 13.9792L20.2683 13.7559V14.2ZM13.2687 34.0666L25.036 27.3024C25.9751 26.7599 26.7549 25.9816 27.2975 25.0451C27.8402 24.1086 28.1268 23.0467 28.1286 21.9654V9.38672L28.3502 9.35592C28.4902 9.33621 28.6315 9.32677 28.7729 9.32768C29.3178 9.3356 29.8511 9.48609 30.3192 9.76409C30.7914 10.032 31.1835 10.4202 31.4552 10.889C31.7269 11.3577 31.8686 11.89 31.8655 12.4313V23.8368C31.8638 25.0082 31.5535 26.1586 30.9656 27.1731C30.3776 28.1876 29.5327 29.0306 28.5152 29.6179L18.4436 35.4092C17.5986 35.8953 16.6079 36.0672 15.6476 35.8942C14.6873 35.7213 13.8197 35.2147 13.1991 34.4645L13.0058 34.2283L13.2687 34.0666Z" fill="black"/>
<path d="M234.328 7.16343H194.632C192.241 7.16343 190.302 9.10224 190.302 11.4939V26.5061C190.302 28.8978 192.241 30.8366 194.632 30.8366H234.328C236.72 30.8366 238.658 28.8978 238.658 26.5061V11.4939C238.658 9.10224 236.72 7.16343 234.328 7.16343Z" fill="black"/>
<path d="M203.627 22.4644C205.751 22.4644 207.037 21.1505 207.037 18.9721C207.037 16.8006 205.751 15.4936 203.648 15.4936H201.156V22.4644H203.627ZM202.63 21.2016V16.7564H203.57C204.876 16.7564 205.568 17.4235 205.568 18.9721C205.568 20.5276 204.876 21.2016 203.565 21.2016H202.63ZM214.534 18.9791C214.534 16.6985 213.118 15.3983 211.271 15.3983C209.413 15.3983 208.007 16.6985 208.007 18.9791C208.007 21.2492 209.413 22.5596 211.271 22.5596C213.118 22.5596 214.534 21.2595 214.534 18.9791ZM213.04 18.9791C213.04 20.4562 212.339 21.256 211.271 21.256C210.198 21.256 209.501 20.4562 209.501 18.9791C209.501 17.5018 210.198 16.7019 211.271 16.7019C212.339 16.7019 213.04 17.5018 213.04 18.9791ZM221.776 17.9341C221.583 16.3241 220.365 15.3983 218.751 15.3983C216.91 15.3983 215.504 16.6985 215.504 18.9791C215.504 21.2527 216.886 22.5596 218.751 22.5596C220.538 22.5596 221.618 21.3718 221.776 20.0885L220.287 20.0817C220.147 20.8272 219.561 21.256 218.775 21.256C217.716 21.256 216.998 20.4698 216.998 18.9791C216.998 17.529 217.706 16.7019 218.786 16.7019C219.592 16.7019 220.174 17.1682 220.287 17.9341H221.776ZM226.615 17.4984H228.028C228.008 16.2561 226.986 15.3983 225.434 15.3983C223.906 15.3983 222.787 16.2425 222.793 17.5086C222.79 18.5365 223.514 19.1253 224.692 19.4079L225.452 19.5985C226.211 19.7822 226.632 20 226.635 20.4698C226.632 20.9803 226.149 21.3275 225.4 21.3275C224.635 21.3275 224.083 20.9735 224.035 20.2757H222.609C222.647 21.7836 223.725 22.5631 225.417 22.5631C227.119 22.5631 228.119 21.7495 228.123 20.4732C228.119 19.3125 227.244 18.6965 226.033 18.4242L225.407 18.2744C224.801 18.1349 224.294 17.9103 224.304 17.4099C224.304 16.9606 224.702 16.6305 225.424 16.6305C226.129 16.6305 226.56 16.9504 226.615 17.4984Z" fill="white"/>
</svg>
