<svg width="240" height="39" viewBox="0 0 240 39" fill="none" xmlns="http://www.w3.org/2000/svg">
<path d="M47.253 28.238C48.7864 29.3418 50.9255 29.9015 53.6109 29.9015C56.188 29.9015 58.1776 29.388 59.5383 28.3407C60.8991 27.2933 61.5511 25.8994 61.5511 24.0357C61.5511 22.6007 61.1207 21.4429 60.2625 20.5984C59.4043 19.7538 58.0127 19.1326 56.1391 18.8014L51.8069 17.9774C50.6961 17.7695 49.9075 17.464 49.3972 17.0532C49.1316 16.8369 48.9204 16.5619 48.7803 16.2499C48.6403 15.9379 48.5753 15.5977 48.5906 15.2563C48.5755 14.8095 48.6818 14.3669 48.8981 13.9752C49.1145 13.5835 49.4329 13.2571 49.8199 13.0306C50.593 12.548 51.6909 12.3016 53.0774 12.3016C54.5773 12.3016 55.7628 12.5814 56.6055 13.1333C57.4357 13.69 58.0132 14.5492 58.2137 15.5258H61.3063C61.2182 14.721 60.9634 13.9431 60.5579 13.2414C60.1524 12.5397 59.6052 11.9295 58.9507 11.4493C57.5359 10.4225 55.6004 9.88596 53.1727 9.88596C50.8404 9.88596 48.9797 10.3994 47.6447 11.4262C46.3098 12.453 45.6655 13.7802 45.6655 15.5335C45.6655 18.2238 47.4025 19.8539 50.9719 20.5137L55.3015 21.3043C56.4818 21.5122 57.3065 21.8383 57.8219 22.3029C58.0929 22.5622 58.3043 22.8767 58.4418 23.225C58.5792 23.5732 58.6394 23.947 58.6183 24.3206C58.6183 26.4128 56.9741 27.473 53.7217 27.473C51.9177 27.473 50.526 27.1727 49.5853 26.5771C49.1313 26.2875 48.7465 25.9022 48.4579 25.4485C48.1694 24.9948 47.9842 24.4836 47.9153 23.951H44.7764C44.8534 24.8014 45.1147 25.6251 45.5423 26.3653C45.9699 27.1054 46.5535 27.7443 47.253 28.238Z" fill="white"/>
<path d="M79.9911 11.0977C78.5273 10.289 76.7413 9.87831 74.6822 9.87831C72.8569 9.83772 71.0515 10.2628 69.4377 11.1131C67.9745 11.9119 66.7757 13.1167 65.9868 14.5812C65.175 16.0727 64.7627 17.8594 64.7627 19.8899C64.7627 21.9205 65.175 23.7072 65.9868 25.1986C66.7757 26.6631 67.9745 27.8679 69.4377 28.6668C71.0514 29.5174 72.8569 29.9425 74.6822 29.9015C76.7207 29.9015 78.5015 29.4908 79.9757 28.6822C81.4323 27.8879 82.6204 26.6821 83.3904 25.2166C84.1919 23.7149 84.5991 21.923 84.5991 19.8899C84.5991 17.8568 84.1919 16.0393 83.3904 14.5478C82.6205 13.0914 81.4386 11.8918 79.9911 11.0977ZM79.6458 25.2474C78.4654 26.5309 76.7955 27.1907 74.6822 27.1907C72.5689 27.1907 70.9247 26.5361 69.734 25.2474C68.5434 23.9587 67.9455 22.1618 67.9455 19.8899C67.9455 17.6181 68.546 15.816 69.7315 14.5324C70.9169 13.2489 72.587 12.5891 74.6796 12.5891C76.7723 12.5891 78.4629 13.2386 79.6432 14.517C80.8236 15.7954 81.4111 17.5975 81.4111 19.8899C81.4111 22.1823 80.8313 23.9639 79.6458 25.2474Z" fill="white"/>
<path d="M105.377 29.5063H108.827V26.2024H106.91V10.2865H103.725V21.4764C103.725 23.2554 103.181 24.6622 102.106 25.6633C101.032 26.6645 99.5161 27.1651 97.5859 27.1651C95.7612 27.1651 94.3438 26.6799 93.3748 25.725C92.4058 24.77 91.9135 23.3427 91.9135 21.5021V10.2788H88.7256V22.2928C88.7256 24.6031 89.4317 26.4617 90.8285 27.8197C92.2254 29.1777 94.1789 29.8734 96.6607 29.8734C98.0818 29.9086 99.4922 29.6197 100.784 29.0288C101.902 28.4861 102.846 27.6444 103.511 26.5978L103.588 26.4797H105.374V29.5063H105.377Z" fill="white"/>
<path d="M124.068 12.7535H125.627V10.1094H124.267C122.885 10.0769 121.52 10.4166 120.316 11.0926C119.232 11.7193 118.373 12.6693 117.86 13.8086L117.79 13.96H115.986V10.2789H112.53V13.5776H114.445V29.5063H117.597V19.4613C117.597 17.4307 118.167 15.7878 119.285 14.5838C120.403 13.3799 122.019 12.7535 124.068 12.7535Z" fill="white"/>
<path d="M142.846 11.6214C141.282 10.4637 139.292 9.87838 136.937 9.87838C135.14 9.83726 133.364 10.2628 131.782 11.1131C130.346 11.9188 129.176 13.1228 128.414 14.5787C127.618 16.0702 127.221 17.8569 127.221 19.89C127.221 21.9231 127.628 23.7072 128.429 25.1987C129.199 26.6557 130.375 27.8601 131.816 28.6668C133.386 29.515 135.151 29.9406 136.937 29.9016C139.377 29.9016 141.416 29.288 142.99 28.079C144.493 26.9289 145.503 25.2552 146 23.1425H142.784C142.011 25.8276 140.042 27.1907 136.937 27.1907C134.908 27.1907 133.292 26.5361 132.135 25.2449C130.978 23.9537 130.401 22.1644 130.401 19.89C130.401 17.6155 130.986 15.7827 132.135 14.5171C133.285 13.2515 134.908 12.5892 136.937 12.5892C138.457 12.5892 139.712 12.9101 140.663 13.539C141.626 14.2056 142.327 15.1847 142.645 16.3089H145.861C145.343 14.2938 144.33 12.7176 142.846 11.6214Z" fill="white"/>
<path d="M167.939 20.2597V19.0352C167.939 17.1561 167.561 15.5157 166.816 14.1577C166.091 12.825 164.996 11.7287 163.661 11.0002C162.167 10.2233 160.499 9.8373 158.814 9.87841C157.028 9.83926 155.262 10.2583 153.685 11.0952C152.248 11.8924 151.073 13.086 150.301 14.5325C149.5 16.0112 149.093 17.7927 149.093 19.8233C149.051 21.6764 149.466 23.5114 150.301 25.1679C151.07 26.6436 152.259 27.8607 153.719 28.6668C155.193 29.4857 156.963 29.9016 158.979 29.9016C161.27 29.9016 163.215 29.3523 164.762 28.2689C166.223 27.2411 167.265 25.7255 167.7 23.9973H164.45C164.104 25.0182 163.408 25.8847 162.484 26.4438C161.409 27.0603 160.185 27.3686 158.945 27.3345C156.945 27.3345 155.322 26.7287 154.121 25.5376C152.92 24.3465 152.26 22.6676 152.147 20.5497L152.131 20.293H167.939V20.2597ZM152.283 17.7696C152.6 16.0933 153.342 14.7687 154.487 13.8343C155.631 12.8999 157.064 12.4249 158.78 12.4249C160.497 12.4249 161.929 12.9024 162.999 13.8394C164.069 14.7764 164.702 16.1061 164.885 17.7901L164.916 18.0725H152.219L152.283 17.7696Z" fill="white"/>
<path d="M14.4233 38.5706C15.2539 38.8449 16.1335 38.941 17.0041 38.8525C17.8747 38.764 18.7166 38.493 19.4745 38.0572L29.546 32.2684C30.8767 31.5011 31.9817 30.3992 32.7506 29.0729C33.5194 27.7466 33.9252 26.2425 33.9272 24.7109V13.3054C33.9336 12.4019 33.6982 11.513 33.2452 10.7302C32.7923 9.9474 32.1381 9.29894 31.35 8.85153C30.5681 8.39608 29.6787 8.15605 28.7729 8.15605C27.8671 8.15605 26.9776 8.39608 26.1957 8.85153L14.3408 15.6774C13.7925 15.9927 13.3371 16.4462 13.0205 16.9924C12.7038 17.5385 12.537 18.158 12.5368 18.7887V26.3256L12.4079 26.4001L9.18649 28.2509L8.79991 28.4743V16.9224C8.80131 16.2016 8.99242 15.4937 9.35418 14.8694C9.71594 14.2451 10.2357 13.7262 10.8616 13.3645L23.7345 5.961C23.9574 5.83152 24.1252 5.62568 24.2068 5.38191C24.2884 5.13815 24.2781 4.87314 24.1778 4.63639C23.8354 3.83352 23.3257 3.11223 22.6825 2.52026C22.0393 1.92828 21.2772 1.4791 20.4467 1.20245C19.6161 0.925798 18.7361 0.827978 17.8648 0.915461C16.9934 1.00294 16.1507 1.27374 15.3923 1.70992L5.32075 7.51152C3.99012 8.27885 2.8851 9.38077 2.11623 10.7071C1.34737 12.0333 0.941622 13.5375 0.939579 15.069V26.4745C0.933203 27.378 1.1686 28.2669 1.62156 29.0497C2.07452 29.8325 2.72868 30.481 3.51674 30.9284C4.29864 31.3838 5.18812 31.6239 6.0939 31.6239C6.99968 31.6239 7.88915 31.3838 8.67105 30.9284L20.526 24.1102C21.0743 23.7949 21.5297 23.3414 21.8463 22.7953C22.163 22.2491 22.3298 21.6296 22.33 20.9989V13.4543L22.4589 13.3799L25.6803 11.529L26.0669 11.3057V22.8575C26.0655 23.5783 25.8744 24.2862 25.5126 24.9105C25.1508 25.5348 24.6311 26.0537 24.0051 26.4155L11.1425 33.8035C10.9159 33.9334 10.7449 34.1414 10.6619 34.3883C10.5788 34.6352 10.5893 34.9039 10.6915 35.1435C11.0348 35.9452 11.545 36.6652 12.1882 37.2559C12.8315 37.8467 13.5933 38.2948 14.4233 38.5706ZM6.73819 16.9301V29.5088L6.51655 29.5396C6.37654 29.5592 6.23528 29.5687 6.0939 29.5678C5.54886 29.5607 5.01542 29.4101 4.5476 29.1314C4.07542 28.8635 3.68333 28.4753 3.41159 28.0066C3.13984 27.5378 2.99824 27.0055 3.00131 26.4642V15.069C3.00298 13.8976 3.31329 12.7472 3.90121 11.7327C4.48914 10.7182 5.33409 9.8752 6.35161 9.28793L16.4231 3.49661C17.2682 3.01045 18.2589 2.83858 19.2192 3.01155C20.1795 3.18453 21.0471 3.69113 21.6677 4.44129L21.861 4.67489L21.6032 4.82635L9.83078 11.5932C8.89171 12.1356 8.11192 12.9139 7.56925 13.8504C7.02658 14.7869 6.74002 15.8488 6.73819 16.9301ZM20.2683 15.0844V20.9887C20.268 21.2588 20.1964 21.5241 20.0607 21.7579C19.925 21.9917 19.73 22.1859 19.4951 22.321L14.9851 24.9137L14.5985 25.1371V18.7887C14.5988 18.5186 14.6704 18.2533 14.8061 18.0195C14.9418 17.7856 15.1368 17.5914 15.3717 17.4564L19.8817 14.8636L20.2683 14.6403V15.0844ZM13.2687 34.951L25.036 28.1868C25.9751 27.6443 26.7549 26.866 27.2975 25.9295C27.8402 24.993 28.1268 23.9311 28.1286 22.8498V10.2711L28.3502 10.2403C28.4902 10.2206 28.6315 10.2112 28.7729 10.2121C29.3178 10.22 29.8511 10.3705 30.3192 10.6485C30.7914 10.9164 31.1835 11.3046 31.4552 11.7734C31.7269 12.2421 31.8686 12.7744 31.8655 13.3157V24.7212C31.8638 25.8926 31.5535 27.043 30.9656 28.0575C30.3776 29.072 29.5327 29.915 28.5152 30.5023L18.4436 36.2936C17.5986 36.7797 16.6079 36.9516 15.6476 36.7786C14.6873 36.6057 13.8197 36.0991 13.1991 35.3489L13.0058 35.1127L13.2687 34.951Z" fill="white"/>
<path d="M234.328 8.04783H194.632C192.241 8.04783 190.302 9.98664 190.302 12.3783V27.3905C190.302 29.7822 192.241 31.721 194.632 31.721H234.328C236.72 31.721 238.658 29.7822 238.658 27.3905V12.3783C238.658 9.98664 236.72 8.04783 234.328 8.04783Z" fill="white"/>
<path d="M203.627 23.3488C205.751 23.3488 207.037 22.0349 207.037 19.8565C207.037 17.685 205.751 16.378 203.648 16.378H201.156V23.3488H203.627ZM202.63 22.086V17.6408H203.57C204.876 17.6408 205.568 18.3079 205.568 19.8565C205.568 21.412 204.876 22.086 203.565 22.086H202.63ZM214.534 19.8635C214.534 17.5829 213.118 16.2827 211.271 16.2827C209.413 16.2827 208.007 17.5829 208.007 19.8635C208.007 22.1336 209.413 23.444 211.271 23.444C213.118 23.444 214.534 22.1439 214.534 19.8635ZM213.04 19.8635C213.04 21.3406 212.339 22.1404 211.271 22.1404C210.198 22.1404 209.501 21.3406 209.501 19.8635C209.501 18.3862 210.198 17.5863 211.271 17.5863C212.339 17.5863 213.04 18.3862 213.04 19.8635ZM221.776 18.8185C221.583 17.2085 220.365 16.2827 218.751 16.2827C216.91 16.2827 215.504 17.5829 215.504 19.8635C215.504 22.1371 216.886 23.444 218.751 23.444C220.538 23.444 221.618 22.2562 221.776 20.9729L220.287 20.9661C220.147 21.7116 219.561 22.1404 218.775 22.1404C217.716 22.1404 216.998 21.3542 216.998 19.8635C216.998 18.4134 217.706 17.5863 218.786 17.5863C219.592 17.5863 220.174 18.0526 220.287 18.8185H221.776ZM226.615 18.3828H228.028C228.008 17.1405 226.986 16.2827 225.434 16.2827C223.906 16.2827 222.787 17.1269 222.793 18.393C222.79 19.4209 223.514 20.0097 224.692 20.2923L225.452 20.4829C226.211 20.6666 226.632 20.8844 226.635 21.3542C226.632 21.8647 226.149 22.2119 225.4 22.2119C224.635 22.2119 224.083 21.8579 224.035 21.1601H222.609C222.647 22.668 223.725 23.4475 225.417 23.4475C227.119 23.4475 228.119 22.6339 228.123 21.3576C228.119 20.1969 227.244 19.5809 226.033 19.3086L225.407 19.1588C224.801 19.0193 224.294 18.7947 224.304 18.2943C224.304 17.845 224.702 17.5149 225.424 17.5149C226.129 17.5149 226.56 17.8348 226.615 18.3828Z" fill="black"/>
</svg>
