<svg width="167" height="39" viewBox="0 0 167 39" fill="none" xmlns="http://www.w3.org/2000/svg">
<path d="M46.3141 27.4692C47.8475 28.5731 49.9865 29.1327 52.6719 29.1327C55.2491 29.1327 57.2386 28.6193 58.5994 27.5719C59.9601 26.5245 60.6121 25.1306 60.6121 23.2669C60.6121 21.8319 60.1817 20.6742 59.3235 19.8296C58.4654 18.985 57.0737 18.3638 55.2001 18.0326L50.8679 17.2086C49.7571 17.0007 48.9685 16.6952 48.4582 16.2845C48.1926 16.0682 47.9814 15.7931 47.8413 15.4811C47.7013 15.1691 47.6363 14.8289 47.6516 14.4875C47.6365 14.0407 47.7428 13.5981 47.9592 13.2064C48.1755 12.8147 48.4939 12.4884 48.8809 12.2619C49.654 11.7792 50.7519 11.5328 52.1384 11.5328C53.6383 11.5328 54.8238 11.8126 55.6666 12.3645C56.4968 12.9212 57.0743 13.7804 57.2747 14.7571H60.3673C60.2792 13.9522 60.0244 13.1743 59.6189 12.4726C59.2135 11.7709 58.6662 11.1607 58.0118 10.6805C56.5969 9.65371 54.6615 9.11719 52.2338 9.11719C49.9015 9.11719 48.0407 9.6306 46.7058 10.6574C45.3708 11.6843 44.7265 13.0114 44.7265 14.7648C44.7265 17.4551 46.4635 19.0851 50.0329 19.7449L54.3625 20.5355C55.5429 20.7435 56.3675 21.0695 56.883 21.5341C57.1539 21.7934 57.3653 22.1079 57.5028 22.4562C57.6403 22.8045 57.7005 23.1782 57.6793 23.5519C57.6793 25.644 56.0351 26.7042 52.7827 26.7042C50.9787 26.7042 49.587 26.4039 48.6464 25.8083C48.1923 25.5187 47.8075 25.1335 47.519 24.6798C47.2305 24.226 47.0452 23.7149 46.9764 23.1822H43.8374C43.9144 24.0327 44.1757 24.8564 44.6033 25.5965C45.0309 26.3366 45.6146 26.9755 46.3141 27.4692Z" fill="black"/>
<path d="M79.0517 10.3288C77.5878 9.5202 75.8019 9.10947 73.7427 9.10947C71.9175 9.06887 70.1121 9.49393 68.4982 10.3442C67.0351 11.143 65.8363 12.3479 65.0474 13.8124C64.2356 15.3038 63.8232 17.0905 63.8232 19.1211C63.8232 21.1516 64.2356 22.9383 65.0474 24.4298C65.8363 25.8943 67.0351 27.0991 68.4982 27.8979C70.112 28.7485 71.9174 29.1736 73.7427 29.1327C75.7813 29.1327 77.5621 28.7219 79.0362 27.9133C80.4928 27.1191 81.6809 25.9133 82.4509 24.4478C83.2524 22.946 83.6596 21.1542 83.6596 19.1211C83.6596 17.0879 83.2524 15.2705 82.4509 13.779C81.681 12.3225 80.4991 11.123 79.0517 10.3288ZM78.7063 24.4786C77.526 25.7621 75.856 26.4218 73.7427 26.4218C71.6295 26.4218 69.9852 25.7672 68.7946 24.4786C67.6039 23.1899 67.006 21.3929 67.006 19.1211C67.006 16.8492 67.6065 15.0471 68.792 13.7636C69.9775 12.48 71.6475 11.8203 73.7401 11.8203C75.8328 11.8203 77.5234 12.4698 78.7038 13.7482C79.8841 15.0266 80.4717 16.8287 80.4717 19.1211C80.4717 21.4135 79.8918 23.195 78.7063 24.4786Z" fill="black"/>
<path d="M104.437 28.7374H107.888V25.4336H105.971V9.51771H102.785V20.7076C102.785 22.4866 102.241 23.8933 101.167 24.8945C100.092 25.8957 98.5767 26.3962 96.6464 26.3962C94.8218 26.3962 93.4043 25.9111 92.4353 24.9561C91.4663 24.0012 90.9741 22.5739 90.9741 20.7333V9.51001H87.7861V21.5239C87.7861 23.8343 88.4923 25.6929 89.8891 27.0509C91.2859 28.4088 93.2394 29.1045 95.7212 29.1045C97.1424 29.1398 98.5528 28.8509 99.8447 28.2599C100.962 27.7173 101.906 26.8756 102.571 25.8289L102.649 25.7108H104.435V28.7374H104.437Z" fill="black"/>
<path d="M123.129 11.9847H124.688V9.34063H123.327C121.945 9.30815 120.58 9.64783 119.376 10.3238C118.292 10.9505 117.433 11.9005 116.92 13.0398L116.851 13.1912H115.047V9.51006H111.591V12.8088H113.506V28.7375H116.658V18.6925C116.658 16.6619 117.227 15.019 118.346 13.815C119.464 12.6111 121.08 11.9847 123.129 11.9847Z" fill="black"/>
<path d="M141.906 10.8526C140.342 9.69483 138.352 9.10953 135.997 9.10953C134.2 9.06842 132.424 9.49396 130.842 10.3443C129.406 11.1499 128.236 12.3539 127.474 13.8099C126.678 15.3013 126.281 17.088 126.281 19.1211C126.281 21.1543 126.688 22.9384 127.489 24.4298C128.259 25.8868 129.435 27.0912 130.876 27.898C132.446 28.7461 134.211 29.1717 135.997 29.1327C138.437 29.1327 140.476 28.5192 142.05 27.3101C143.553 26.1601 144.563 24.4863 145.061 22.3736H141.844C141.071 25.0588 139.102 26.4219 135.997 26.4219C133.968 26.4219 132.353 25.7673 131.195 24.4761C130.038 23.1848 129.461 21.3956 129.461 19.1211C129.461 16.8467 130.046 15.0138 131.195 13.7482C132.345 12.4827 133.968 11.8204 135.997 11.8204C137.517 11.8204 138.772 12.1413 139.723 12.7702C140.686 13.4368 141.387 14.4159 141.705 15.5401H144.921C144.403 13.5249 143.391 11.9487 141.906 10.8526Z" fill="black"/>
<path d="M167 19.4909V18.2664C167 16.3873 166.621 14.747 165.876 13.389C165.152 12.0562 164.056 10.9599 162.722 10.2315C161.227 9.45456 159.559 9.06855 157.874 9.10966C156.088 9.07052 154.322 9.48953 152.746 10.3265C151.309 11.1237 150.134 12.3173 149.362 13.7638C148.56 15.2424 148.153 17.024 148.153 19.0545C148.112 20.9076 148.527 22.7426 149.362 24.3992C150.131 25.8748 151.319 27.0919 152.779 27.8981C154.253 28.717 156.024 29.1329 158.039 29.1329C160.33 29.1329 162.276 28.5835 163.822 27.5002C165.283 26.4724 166.326 24.9568 166.76 23.2286H163.51C163.165 24.2495 162.469 25.1159 161.544 25.675C160.47 26.2916 159.245 26.5999 158.006 26.5658C156.006 26.5658 154.382 25.96 153.181 24.7688C151.98 23.5777 151.321 21.8988 151.207 19.781L151.192 19.5243H167V19.4909ZM151.344 17.0009C151.661 15.3246 152.403 13.9999 153.547 13.0655C154.691 12.1311 156.124 11.6562 157.841 11.6562C159.557 11.6562 160.99 12.1337 162.06 13.0707C163.129 14.0076 163.763 15.3374 163.946 17.0214L163.977 17.3038H151.279L151.344 17.0009Z" fill="black"/>
<path d="M13.4838 37.8018C14.3145 38.0761 15.194 38.1722 16.0646 38.0837C16.9352 37.9952 17.7771 37.7242 18.535 37.2884L28.6066 31.4996C29.9372 30.7323 31.0422 29.6304 31.8111 28.3041C32.58 26.9778 32.9857 25.4737 32.9878 23.9421V12.5366C32.9941 11.6331 32.7587 10.7442 32.3058 9.96141C31.8528 9.17861 31.1987 8.53014 30.4106 8.08273C29.6287 7.62729 28.7392 7.38725 27.8334 7.38725C26.9277 7.38725 26.0382 7.62729 25.2563 8.08273L13.4014 14.9086C12.853 15.2239 12.3977 15.6774 12.081 16.2236C11.7643 16.7697 11.5975 17.3892 11.5973 18.0199V25.5568L11.4685 25.6313L8.24703 27.4821L7.86046 27.7055V16.1536C7.86186 15.4328 8.05297 14.7249 8.41473 14.1006C8.77649 13.4763 9.29626 12.9574 9.92219 12.5957L22.7951 5.1922C23.0179 5.06272 23.1858 4.85688 23.2674 4.61311C23.3489 4.36935 23.3386 4.10434 23.2384 3.86759C22.8959 3.06472 22.3863 2.34344 21.743 1.75146C21.0998 1.15948 20.3377 0.710302 19.5072 0.433651C18.6767 0.157 17.7966 0.0591791 16.9253 0.146662C16.054 0.234146 15.2112 0.504938 14.4528 0.941122L4.3813 6.74272C3.05066 7.51005 1.94564 8.61197 1.17678 9.93826C0.407918 11.2645 0.00216907 12.7687 0.000126183 14.3002V25.7057C-0.00625031 26.6092 0.229151 27.4981 0.682109 28.2809C1.13507 29.0637 1.78923 29.7122 2.57728 30.1596C3.35919 30.615 4.24866 30.8551 5.15444 30.8551C6.06022 30.8551 6.9497 30.615 7.7316 30.1596L19.5865 23.3414C20.1349 23.0261 20.5902 22.5726 20.9069 22.0265C21.2235 21.4803 21.3903 20.8608 21.3905 20.2301V12.6855L21.5194 12.6111L24.7408 10.7602L25.1274 10.5369V22.0887C25.126 22.8095 24.9349 23.5174 24.5732 24.1417C24.2114 24.766 23.6916 25.2849 23.0657 25.6467L10.2031 33.0347C9.9765 33.1646 9.80549 33.3726 9.7224 33.6195C9.6393 33.8664 9.64986 34.1351 9.75209 34.3747C10.0954 35.1764 10.6055 35.8964 11.2488 36.4871C11.8921 37.0779 12.6538 37.526 13.4838 37.8018ZM5.79873 16.1613V28.74L5.5771 28.7708C5.43709 28.7904 5.29583 28.7999 5.15444 28.799C4.60941 28.7919 4.07596 28.6413 3.60815 28.3626C3.13597 28.0947 2.74388 27.7065 2.47214 27.2378C2.20039 26.769 2.05878 26.2367 2.06185 25.6954V14.3002C2.06352 13.1288 2.37383 11.9784 2.96176 10.9639C3.54969 9.9494 4.39464 9.1064 5.41216 8.51913L15.4837 2.72781C16.3287 2.24165 17.3195 2.06978 18.2798 2.24275C19.24 2.41573 20.1076 2.92233 20.7282 3.67249L20.9215 3.9061L20.6638 4.05755L8.89132 10.8244C7.95225 11.3668 7.17246 12.1451 6.6298 13.0816C6.08713 14.0181 5.80057 15.08 5.79873 16.1613ZM19.3288 14.3156V20.2199C19.3285 20.49 19.257 20.7553 19.1213 20.9891C18.9856 21.2229 18.7905 21.4171 18.5557 21.5522L14.0456 24.1449L13.6591 24.3683V18.0199C13.6593 17.7498 13.7309 17.4845 13.8666 17.2507C14.0023 17.0168 14.1974 16.8226 14.4322 16.6876L18.9422 14.0948L19.3288 13.8715V14.3156ZM12.3293 34.1822L24.0966 27.418C25.0356 26.8755 25.8154 26.0972 26.3581 25.1607C26.9008 24.2242 27.1873 23.1623 27.1891 22.081V9.50232L27.4108 9.47152C27.5508 9.45181 27.692 9.44237 27.8334 9.44328C28.3784 9.4512 28.9116 9.6017 29.3797 9.87969C29.8519 10.1476 30.244 10.5358 30.5157 11.0046C30.7875 11.4733 30.9291 12.0056 30.926 12.5469V23.9524C30.9244 25.1238 30.614 26.2742 30.0261 27.2887C29.4382 28.3032 28.5932 29.1462 27.5757 29.7335L17.5042 35.5248C16.6591 36.0109 15.6684 36.1828 14.7081 36.0098C13.7478 35.8369 12.8803 35.3303 12.2597 34.5801L12.0664 34.3439L12.3293 34.1822Z" fill="black"/>
</svg>
