<svg width="168" height="39" viewBox="0 0 168 39" fill="none" xmlns="http://www.w3.org/2000/svg">
<path d="M46.6646 27.4692C48.198 28.5731 50.3371 29.1327 53.0225 29.1327C55.5996 29.1327 57.5892 28.6193 58.95 27.5719C60.3107 26.5245 60.9627 25.1306 60.9627 23.2669C60.9627 21.8319 60.5323 20.6742 59.6741 19.8296C58.8159 18.985 57.4243 18.3638 55.5507 18.0326L51.2185 17.2086C50.1077 17.0007 49.3191 16.6952 48.8088 16.2845C48.5432 16.0682 48.332 15.7931 48.1919 15.4811C48.0519 15.1691 47.9869 14.8289 48.0022 14.4875C47.9871 14.0407 48.0934 13.5981 48.3097 13.2064C48.5261 12.8147 48.8445 12.4884 49.2315 12.2619C50.0046 11.7792 51.1025 11.5328 52.489 11.5328C53.9889 11.5328 55.1744 11.8126 56.0171 12.3645C56.8474 12.9212 57.4249 13.7804 57.6253 14.7571H60.7179C60.6298 13.9522 60.375 13.1743 59.9695 12.4726C59.5641 11.7709 59.0168 11.1607 58.3624 10.6805C56.9475 9.65371 55.0121 9.11719 52.5844 9.11719C50.252 9.11719 48.3913 9.6306 47.0564 10.6574C45.7214 11.6843 45.0771 13.0114 45.0771 14.7648C45.0771 17.4551 46.8141 19.0851 50.3835 19.7449L54.7131 20.5355C55.8934 20.7435 56.7181 21.0695 57.2336 21.5341C57.5045 21.7934 57.7159 22.1079 57.8534 22.4562C57.9908 22.8045 58.0511 23.1782 58.0299 23.5519C58.0299 25.644 56.3857 26.7042 53.1333 26.7042C51.3293 26.7042 49.9376 26.4039 48.997 25.8083C48.5429 25.5187 48.1581 25.1335 47.8696 24.6798C47.581 24.226 47.3958 23.7149 47.327 23.1822H44.188C44.265 24.0327 44.5263 24.8564 44.9539 25.5965C45.3815 26.3366 45.9652 26.9755 46.6646 27.4692Z" fill="white"/>
<path d="M79.4023 10.3288C77.9384 9.5202 76.1525 9.10947 74.0933 9.10947C72.268 9.06887 70.4627 9.49393 68.8488 10.3442C67.3856 11.143 66.1868 12.3479 65.398 13.8124C64.5862 15.3038 64.1738 17.0905 64.1738 19.1211C64.1738 21.1516 64.5862 22.9383 65.398 24.4298C66.1868 25.8943 67.3856 27.0991 68.8488 27.8979C70.4625 28.7485 72.268 29.1736 74.0933 29.1327C76.1318 29.1327 77.9127 28.7219 79.3868 27.9133C80.8434 27.1191 82.0315 25.9133 82.8015 24.4478C83.603 22.946 84.0102 21.1542 84.0102 19.1211C84.0102 17.0879 83.603 15.2705 82.8015 13.779C82.0316 12.3225 80.8497 11.123 79.4023 10.3288ZM79.0569 24.4786C77.8766 25.7621 76.2066 26.4218 74.0933 26.4218C71.98 26.4218 70.3358 25.7672 69.1452 24.4786C67.9545 23.1899 67.3566 21.3929 67.3566 19.1211C67.3566 16.8492 67.9571 15.0471 69.1426 13.7636C70.3281 12.48 71.9981 11.8203 74.0907 11.8203C76.1834 11.8203 77.874 12.4698 79.0543 13.7482C80.2347 15.0266 80.8223 16.8287 80.8223 19.1211C80.8223 21.4135 80.2424 23.195 79.0569 24.4786Z" fill="white"/>
<path d="M104.788 28.7374H108.239V25.4336H106.321V9.51771H103.136V20.7076C103.136 22.4866 102.592 23.8933 101.517 24.8945C100.443 25.8957 98.9273 26.3962 96.997 26.3962C95.1724 26.3962 93.7549 25.9111 92.7859 24.9561C91.8169 24.0012 91.3247 22.5739 91.3247 20.7333V9.51001H88.1367V21.5239C88.1367 23.8343 88.8429 25.6929 90.2397 27.0509C91.6365 28.4088 93.59 29.1045 96.0718 29.1045C97.4929 29.1398 98.9034 28.8509 100.195 28.2599C101.313 27.7173 102.257 26.8756 102.922 25.8289L102.999 25.7108H104.785V28.7374H104.788Z" fill="white"/>
<path d="M123.479 11.9847H125.039V9.34063H123.678C122.296 9.30815 120.931 9.64783 119.727 10.3238C118.643 10.9505 117.784 11.9005 117.271 13.0398L117.201 13.1912H115.397V9.51006H111.941V12.8088H113.856V28.7375H117.008V18.6925C117.008 16.6619 117.578 15.019 118.696 13.815C119.815 12.6111 121.431 11.9847 123.479 11.9847Z" fill="white"/>
<path d="M142.257 10.8526C140.692 9.69483 138.703 9.10953 136.347 9.10953C134.551 9.06842 132.774 9.49396 131.193 10.3443C129.757 11.1499 128.586 12.3539 127.825 13.8099C127.028 15.3013 126.631 17.088 126.631 19.1211C126.631 21.1543 127.039 22.9384 127.84 24.4298C128.61 25.8868 129.786 27.0912 131.226 27.898C132.797 28.7461 134.562 29.1717 136.347 29.1327C138.788 29.1327 140.826 28.5192 142.401 27.3101C143.903 26.1601 144.914 24.4863 145.411 22.3736H142.195C141.422 25.0588 139.453 26.4219 136.347 26.4219C134.319 26.4219 132.703 25.7673 131.546 24.4761C130.389 23.1848 129.812 21.3956 129.812 19.1211C129.812 16.8467 130.397 15.0138 131.546 13.7482C132.695 12.4827 134.319 11.8204 136.347 11.8204C137.868 11.8204 139.123 12.1413 140.074 12.7702C141.037 13.4368 141.737 14.4159 142.056 15.5401H145.272C144.754 13.5249 143.741 11.9487 142.257 10.8526Z" fill="white"/>
<path d="M167.351 19.4909V18.2664C167.351 16.3873 166.972 14.747 166.227 13.389C165.502 12.0562 164.407 10.9599 163.072 10.2315C161.578 9.45456 159.91 9.06855 158.225 9.10966C156.439 9.07052 154.673 9.48953 153.096 10.3265C151.66 11.1237 150.485 12.3173 149.712 13.7638C148.911 15.2424 148.504 17.024 148.504 19.0545C148.463 20.9076 148.878 22.7426 149.712 24.3992C150.481 25.8748 151.67 27.0919 153.13 27.8981C154.604 28.717 156.374 29.1329 158.39 29.1329C160.681 29.1329 162.627 28.5835 164.173 27.5002C165.634 26.4724 166.676 24.9568 167.111 23.2286H163.861C163.516 24.2495 162.819 25.1159 161.895 25.675C160.82 26.2916 159.596 26.5999 158.356 26.5658C156.356 26.5658 154.733 25.96 153.532 24.7688C152.331 23.5777 151.671 21.8988 151.558 19.781L151.542 19.5243H167.351V19.4909ZM151.694 17.0009C152.011 15.3246 152.754 13.9999 153.898 13.0655C155.042 12.1311 156.475 11.6562 158.191 11.6562C159.908 11.6562 161.341 12.1337 162.41 13.0707C163.48 14.0076 164.114 15.3374 164.297 17.0214L164.328 17.3038H151.63L151.694 17.0009Z" fill="white"/>
<path d="M13.8344 37.8018C14.6651 38.0761 15.5446 38.1722 16.4152 38.0837C17.2858 37.9952 18.1277 37.7242 18.8856 37.2884L28.9572 31.4996C30.2878 30.7323 31.3928 29.6304 32.1617 28.3041C32.9305 26.9778 33.3363 25.4737 33.3383 23.9421V12.5366C33.3447 11.6331 33.1093 10.7442 32.6564 9.96142C32.2034 9.17861 31.5492 8.53014 30.7612 8.08273C29.9793 7.62729 29.0898 7.38725 28.184 7.38725C27.2782 7.38725 26.3888 7.62729 25.6069 8.08273L13.7519 14.9086C13.2036 15.2239 12.7482 15.6774 12.4316 16.2236C12.1149 16.7697 11.9481 17.3892 11.9479 18.0199V25.5568L11.8191 25.6313L8.59762 27.4821L8.21105 27.7055V16.1536C8.21244 15.4328 8.40355 14.7249 8.76532 14.1006C9.12708 13.4763 9.64684 12.9574 10.2728 12.5957L23.1457 5.1922C23.3685 5.06272 23.5364 4.85688 23.6179 4.61311C23.6995 4.36935 23.6892 4.10434 23.5889 3.86759C23.2465 3.06472 22.7368 2.34344 22.0936 1.75146C21.4504 1.15948 20.6883 0.710302 19.8578 0.433651C19.0273 0.157 18.1472 0.0591791 17.2759 0.146662C16.4046 0.234146 15.5618 0.504938 14.8034 0.941122L4.73188 6.74272C3.40125 7.51005 2.29623 8.61197 1.52737 9.93826C0.758504 11.2645 0.352755 12.7687 0.350712 14.3002V25.7057C0.344336 26.6092 0.579737 27.4981 1.0327 28.2809C1.48565 29.0637 2.13981 29.7122 2.92787 30.1596C3.70978 30.615 4.59925 30.8551 5.50503 30.8551C6.41081 30.8551 7.30028 30.615 8.08219 30.1596L19.9371 23.3414C20.4854 23.0261 20.9408 22.5726 21.2575 22.0265C21.5741 21.4803 21.7409 20.8608 21.7411 20.2301V12.6855L21.87 12.6111L25.0914 10.7602L25.478 10.5369V22.0887C25.4766 22.8095 25.2855 23.5174 24.9237 24.1417C24.562 24.766 24.0422 25.2849 23.4163 25.6467L10.5537 33.0347C10.3271 33.1646 10.1561 33.3726 10.073 33.6195C9.98989 33.8664 10.0004 34.1351 10.1027 34.3747C10.446 35.1764 10.9561 35.8964 11.5994 36.4871C12.2426 37.0779 13.0044 37.526 13.8344 37.8018ZM6.14932 16.1613V28.74L5.92768 28.7708C5.78767 28.7904 5.64642 28.7999 5.50503 28.799C4.95999 28.7919 4.42655 28.6413 3.95873 28.3626C3.48656 28.0947 3.09447 27.7065 2.82272 27.2378C2.55098 26.769 2.40937 26.2367 2.41244 25.6954V14.3002C2.41411 13.1288 2.72442 11.9784 3.31235 10.9639C3.90027 9.9494 4.74522 9.1064 5.76274 8.51913L15.8343 2.72781C16.6793 2.24165 17.6701 2.06978 18.6304 2.24275C19.5906 2.41573 20.4582 2.92233 21.0788 3.67249L21.2721 3.9061L21.0144 4.05755L9.24191 10.8244C8.30284 11.3668 7.52305 12.1451 6.98038 13.0816C6.43771 14.0181 6.15116 15.08 6.14932 16.1613ZM19.6794 14.3156V20.2199C19.6791 20.49 19.6075 20.7553 19.4718 20.9891C19.3361 21.2229 19.1411 21.4171 18.9063 21.5522L14.3962 24.1449L14.0097 24.3683V18.0199C14.0099 17.7498 14.0815 17.4845 14.2172 17.2507C14.3529 17.0168 14.548 16.8226 14.7828 16.6876L19.2928 14.0948L19.6794 13.8715V14.3156ZM12.6798 34.1822L24.4471 27.418C25.3862 26.8755 26.166 26.0972 26.7087 25.1607C27.2513 24.2242 27.5379 23.1623 27.5397 22.081V9.50233L27.7614 9.47152C27.9014 9.45181 28.0426 9.44237 28.184 9.44328C28.729 9.4512 29.2622 9.6017 29.7303 9.87969C30.2025 10.1476 30.5946 10.5358 30.8663 11.0046C31.1381 11.4733 31.2797 12.0056 31.2766 12.5469V23.9524C31.2749 25.1238 30.9646 26.2742 30.3767 27.2887C29.7888 28.3032 28.9438 29.1462 27.9263 29.7335L17.8548 35.5248C17.0097 36.0109 16.019 36.1828 15.0587 36.0098C14.0984 35.8369 13.2308 35.3303 12.6103 34.5801L12.417 34.3439L12.6798 34.1822Z" fill="white"/>
</svg>
