<svg width="1000" height="205" viewBox="0 0 1000 205" fill="none" xmlns="http://www.w3.org/2000/svg">
<g clip-path="url(#clip0_2_2)">
<path d="M181.159 52.2336C178.303 47.286 174.199 43.1765 169.257 40.3164C164.315 37.4563 158.71 35.946 153.002 35.9367C147.306 35.9428 141.711 37.4436 136.775 40.2895L76.7081 74.9559C71.7608 77.8094 67.6516 81.9171 64.7939 86.8657C61.9363 91.8143 60.431 97.4291 60.4296 103.145V142.19L43.1677 152.165V84.8014C43.1709 81.3601 44.0821 77.9808 45.809 75.0053C47.5359 72.0298 50.0173 69.5638 53.0021 67.8568L124.896 26.2726L122.981 21.0908C121.319 16.674 118.717 12.6718 115.357 9.36131C111.997 6.05078 107.958 3.51105 103.52 1.91799C99.0642 0.313128 94.3121 -0.297031 89.5963 0.13026C84.8934 0.560413 80.3385 2.00089 76.2422 4.35346L16.2785 38.994C11.3312 41.8475 7.22197 45.9552 4.36431 50.9038C1.50665 55.8523 0.00138496 61.4672 0 67.1832L0 135.661C0.0068422 144.292 3.43286 152.568 9.52654 158.673C15.6202 164.779 23.884 168.215 32.5052 168.229C38.2011 168.223 43.796 166.722 48.7319 163.876L108.696 129.21C113.611 126.375 117.699 122.299 120.55 117.389C123.402 112.48 124.918 106.907 124.948 101.228V62.0014L142.34 52.0004V118.665C142.338 122.107 141.431 125.488 139.709 128.467C137.987 131.446 135.511 133.919 132.531 135.635L60.4814 177.245L62.2153 182.427C64.4221 188.836 68.5744 194.394 74.0917 198.324C79.609 202.254 86.2152 204.36 92.9865 204.346C93.9182 204.346 94.8499 204.346 95.7557 204.346C100.536 203.922 105.165 202.454 109.317 200.045L169.177 165.172C174.112 162.313 178.211 158.207 181.063 153.265C183.915 148.322 185.421 142.716 185.43 137.008V68.5046C185.451 62.8006 183.978 57.1906 181.159 52.2336ZM34.6791 68.6341C31.8252 73.5816 30.3172 79.1919 30.3054 84.9051V155.145C27.6529 154.804 25.0985 153.923 22.8002 152.554C19.82 150.853 17.3398 148.396 15.6089 145.43C13.878 142.465 12.9575 139.096 12.94 135.661V67.1832C12.9491 63.7427 13.8598 60.3648 15.5809 57.3869C17.3021 54.4089 19.7735 51.9352 22.7484 50.2127L82.8157 15.5462C85.2862 14.1242 88.0291 13.2413 90.8644 12.9553C91.451 12.9553 92.0462 12.9553 92.6501 12.9553C97.79 12.9782 102.719 15.0041 106.392 18.6035C107.12 19.3319 107.794 20.1112 108.411 20.9353L46.5839 56.7159C41.6044 59.5542 37.4689 63.6676 34.6014 68.6341H34.6791ZM112.034 101.202C112.017 104.613 111.104 107.96 109.387 110.907C107.67 113.854 105.209 116.297 102.252 117.991L73.3696 134.728V103.145C73.355 99.6999 74.2556 96.3127 75.9791 93.3306C77.7027 90.3485 80.1872 87.8788 83.1781 86.1746L112.034 69.4891V101.202ZM172.49 136.982C172.488 140.425 171.581 143.806 169.859 146.785C168.137 149.764 165.661 152.237 162.681 153.953L102.795 188.594C100.301 190.047 97.5175 190.932 94.6429 191.184C91.7537 191.421 88.8478 191.023 86.1284 190.019C83.4223 189.017 80.9733 187.424 78.9596 185.355C78.1682 184.557 77.4493 183.69 76.8116 182.764L138.923 146.854C143.881 144.012 148.004 139.913 150.875 134.969C153.747 130.024 155.266 124.41 155.28 118.691V49.0209C160.044 49.5856 164.437 51.8813 167.623 55.4726C170.81 59.0639 172.569 63.701 172.567 68.5046L172.49 136.982Z" fill="black"/>
<path d="M285.016 122.991C285.224 126.203 286.177 129.322 287.799 132.101C289.42 134.88 291.666 137.243 294.358 139.003C300.747 143.406 308.402 145.59 316.149 145.221C322.895 145.527 329.597 143.987 335.533 140.765C337.688 139.529 339.475 137.74 340.709 135.583C342.026 133.468 342.725 131.027 342.728 128.535C342.878 126.78 342.649 125.012 342.055 123.354C341.435 121.721 340.504 120.224 339.312 118.949C336.713 116.672 333.563 115.118 330.176 114.441C326.346 113.543 320.462 112.601 312.526 111.617C303.399 110.707 294.374 108.972 285.559 106.435C279.065 104.57 273.192 100.99 268.556 96.0712C264.019 90.6466 261.698 83.7052 262.06 76.6393C261.953 69.4044 264.176 62.3273 268.401 56.4561C272.955 50.3122 279.104 45.5359 286.18 42.6465C294.323 39.3124 303.056 37.6643 311.853 37.8015C325.42 37.1715 338.846 40.7943 350.259 48.1651C355.024 51.5337 358.957 55.9487 361.756 61.0726C364.555 66.1964 366.146 71.8933 366.408 77.7275H341.046C340.764 74.9207 339.882 72.2076 338.458 69.7734C336.975 67.3493 334.989 65.2728 332.635 63.6847C327.077 59.8363 320.416 57.9078 313.665 58.192C307.163 57.8735 300.704 59.4003 295.031 62.5965C292.894 63.7747 291.107 65.5005 289.855 67.597C288.62 69.7036 287.96 72.0981 287.94 74.5407C287.803 76.1072 288.025 77.6843 288.587 79.1525C289.139 80.6077 290.026 81.9124 291.175 82.9611C293.811 85.0071 296.915 86.3609 300.207 86.8993C303.804 87.6248 309.55 88.4539 317.495 89.4903C326.703 90.3051 335.806 92.041 344.669 94.6721C351.435 96.7136 357.501 100.598 362.189 105.891C366.811 111.779 369.154 119.139 368.789 126.618C368.918 134.106 366.499 141.415 361.931 147.345C357.031 153.471 350.539 158.124 343.168 160.792C334.617 164.08 325.514 165.689 316.356 165.534C301.97 166.183 287.753 162.216 275.776 154.211C270.827 150.684 266.794 146.019 264.016 140.61C261.238 135.2 259.795 129.203 259.808 123.12L285.016 122.991Z" fill="black"/>
<path d="M415.916 157.735C406.414 152.605 398.636 144.782 393.556 135.246C388.175 124.936 385.504 113.426 385.792 101.797C385.493 90.1759 388.166 78.671 393.556 68.3743C398.691 58.8479 406.476 51.0177 415.968 45.8333C426.252 40.5125 437.66 37.7358 449.237 37.7358C460.813 37.7358 472.221 40.5125 482.505 45.8333C491.997 51.0177 499.782 58.8479 504.917 68.3743C510.324 78.6322 513.04 90.0971 512.811 101.693C513.047 113.332 510.331 124.84 504.917 135.142C499.799 144.641 492.005 152.425 482.505 157.528C472.164 162.69 460.766 165.377 449.211 165.377C437.655 165.377 426.257 162.69 415.916 157.528V157.735ZM475.828 131.826C482.865 123.481 486.555 112.816 486.18 101.901C486.56 91.0086 482.869 80.366 475.828 72.0534C472.518 68.2546 468.408 65.2373 463.794 63.2184C454.378 59.5655 443.939 59.5655 434.524 63.2184C429.937 65.2323 425.859 68.2516 422.593 72.0534C415.735 80.4466 412.19 91.0662 412.629 101.901C412.19 112.759 415.734 123.403 422.593 131.826C425.879 135.606 429.951 138.622 434.524 140.661C443.939 144.314 454.378 144.314 463.794 140.661C468.547 138.633 472.784 135.56 476.19 131.67L475.828 131.826Z" fill="black"/>
<path d="M971.558 122.369C970.055 128.911 966.159 134.651 960.637 138.459C954.579 142.447 947.438 144.465 940.192 144.236C935.663 144.463 931.136 143.749 926.896 142.14C922.655 140.53 918.794 138.059 915.554 134.883C909.018 127.828 905.33 118.596 905.202 108.974V107.419H999.301C999.789 104.117 1000.03 100.783 1000.03 97.4444C1000.14 86.4217 997.328 75.5665 991.874 65.9906C986.729 57.1823 979.214 49.9999 970.186 45.2633C960.356 40.2411 949.44 37.7227 938.406 37.931C927.372 37.7392 916.485 40.4841 906.858 45.8851C897.716 51.1715 890.266 58.9538 885.378 68.3225C880.077 78.7448 877.411 90.3103 877.614 102.004C877.379 113.652 880.123 125.166 885.585 135.453C890.728 144.921 898.516 152.682 907.997 157.787C918.478 163.308 930.188 166.072 942.029 165.819C955.533 166.288 968.771 161.987 979.426 153.667C986.75 147.839 992.314 140.09 995.497 131.282L971.558 122.369ZM917.21 67.027C923.409 61.7599 931.312 58.9324 939.441 59.0729C947.783 58.8306 955.936 61.5881 962.422 66.8456C968.637 72.2608 972.514 79.8754 973.24 88.0912H906.418C906.748 84.0298 907.883 80.075 909.757 76.458C911.611 72.8339 914.182 69.6252 917.314 67.027H917.21Z" fill="black"/>
<path d="M835.921 119.312C834.61 126.156 830.948 132.324 825.569 136.749C819.818 141.214 812.683 143.516 805.409 143.252C800.555 143.421 795.728 142.464 791.306 140.455C786.884 138.446 782.986 135.439 779.917 131.67C773.209 123.083 769.794 112.376 770.29 101.486C769.751 90.7415 773.178 80.1737 779.917 71.7943C782.998 68.0419 786.904 65.0536 791.33 63.0629C795.756 61.0966 800.569 60.1578 805.409 60.3165C812.42 59.9602 819.329 62.1094 824.904 66.3805C830.478 70.6516 834.356 76.7668 835.844 83.6348L860.637 74.5925C857.704 65.0274 852.046 56.5272 844.358 50.1342C833.462 41.6105 819.899 37.2315 806.082 37.7755C794.585 37.5607 783.224 40.2991 773.085 45.7297C763.719 50.865 756.055 58.6275 751.035 68.0634C745.695 78.3786 743.025 89.8704 743.271 101.486C743.057 113.181 745.724 124.749 751.035 135.168C755.902 144.682 763.488 152.529 772.826 157.709C782.839 163.179 794.109 165.921 805.512 165.663C819.451 166.227 833.145 161.871 844.203 153.356C852.158 146.866 857.975 138.126 860.896 128.276L835.921 119.312Z" fill="black"/>
<path d="M619.358 105.994C619.358 115.374 617.288 141.179 588.794 141.179C560.3 141.179 558.256 115.27 558.282 105.994V37.6201H531.988V107.575C531.829 117.999 534.182 128.308 538.846 137.63C543.241 146.372 550.156 153.593 558.696 158.357C568.008 163.176 578.337 165.69 588.82 165.69C599.302 165.69 609.632 163.176 618.944 158.357C627.462 153.572 634.363 146.356 638.768 137.63C643.452 128.314 645.814 118.002 645.652 107.575V37.6201H619.358V105.994Z" fill="black"/>
<path d="M702.303 40.8847C716.744 35.4697 732.583 38.2938 737.5 39.6669V64.9543C735.74 64.9543 718.09 60.5238 705.59 71.9239C700.88 76.2248 698.214 85.7075 698.162 97.833V165.819H670.989V91.278C670.782 84.1097 671.842 76.9611 674.12 70.162C676.39 63.5139 680.091 57.446 684.961 52.3871C689.831 47.3281 695.751 43.4015 702.303 40.8847Z" fill="black"/>
</g>
<defs>
<clipPath id="clip0_2_2">
<rect width="1000" height="204.216" fill="white"/>
</clipPath>
</defs>
</svg>
